/* XPM */
static char *result[] = {
/* columns rows colors chars-per-pixel */
"32 32 7 1 ",
"  c #154C59",
". c #1B5A5B",
"X c #266F5D",
"o c #BF4830",
"O c #378B60",
"+ c #FDAE35",
"@ c #FFD943",
/* pixels */
"         X  .  X  ..    XX...   ",
".   X . X  .  .X....X .XX...   X",
" . X  ..X.. .X X .......X...  X ",
"XXX .....X.+++++++oo...X....X ..",
"  X . ...++o++++++++ooXX...X .X.",
". X.....+o+++++++++++ooX... OXX.",
".. X ..+o+++++++++++++oo.X O.X..",
"...X  +o+++++++++++++++oo. O.X..",
"....X.+o+++++o+o+++++++oo.OXX...",
"..X .X+o+++++o+o+++++++ooOX.X...",
"...XX+o++++ooooooo++++++oo.XXX..",
"X....+o+++++ooooooo+++++ooOXXXXX",
".X.X.+o+++++oo++ooo+++++ooX..X.X",
"X.XXX+o+++++oo++ooo+++++ooXX XXX",
"OXX.X+o+++++ooooooo+++++ooX . ..",
".XXXX+o+++++ooooooo+++++ooX.... ",
".XXX.+o+++++oo++ooo+++++oo.... .",
"..X  +o+++++oo++ooo+++++ooXOO...",
"...  +o+++++ooooooo+++++oo  ..X.",
".. . +o++++ooooooo+++++@oo .X..X",
".   .O+o+++++++o++++++@oo . X...",
".. . X+o+++++++o+++++@@oo.  ....",
"X .. O+o++++++++++++@@@oo.X.... ",
".X .O. +o+++++++++@@@@ooXX......",
".. .X..X+oo++++++@@@+oo.......  ",
"..X X.X .++o++++@@@+oo.....X   .",
"...X X .. .++++@@@oo.X X..X   ..",
"... ..X .      X .. X. .. .   . ",
".X X...X.. .  . XX.X ...X.XX . .",
". X.....X    . X  XX  . . X.X...",
"X. X.. . .. . X ...X   . X...   ",
" .  X . .X .  .X....O.  X...    "
};
