/* XPM */
static char *result[] = {
/* columns rows colors chars-per-pixel */
"80 80 81 1 ",
"  c black",
". c #010101",
"X c #020202",
"o c #030202",
"O c #020303",
"+ c #030506",
"@ c #080707",
"# c #050708",
"$ c #0A110B",
"% c #050D14",
"& c #07101C",
"* c #07121D",
"= c #101010",
"- c #1B1A1A",
"; c #1C1A1A",
": c #1A222B",
"> c #10243B",
", c #2F2727",
"< c #2A2B2C",
"1 c #15304F",
"2 c #1A3C61",
"3 c #534646",
"4 c #494E54",
"5 c #4F555B",
"6 c #595B5E",
"7 c #675656",
"8 c #615C5C",
"9 c #5E6063",
"0 c #7D7676",
"q c #816C6C",
"w c #5A9761",
"e c #25568C",
"r c #25578E",
"t c #295F9A",
"y c #326399",
"u c #4C6680",
"i c #4B7198",
"p c #567490",
"a c #587693",
"s c #597896",
"d c #597897",
"f c #5A7997",
"g c #77818A",
"h c #7E8791",
"j c #7C94AB",
"k c #978F8F",
"l c #9FA3A9",
"z c #A3A7AD",
"x c #B9AFAF",
"c c #D2B0B0",
"v c #B9BDC4",
"b c #ADBFD2",
"n c #BBC9D7",
"m c #C5C9D0",
"M c #CDD1D9",
"N c #CFD4DC",
"B c #D7D7D7",
"V c #F5CECE",
"C c #FAD2D2",
"Z c #FBD3D3",
"A c #FED5D5",
"S c #FFD6D6",
"D c #FFDCDC",
"F c #C5D3E2",
"G c #C7D6E5",
"H c #D4D9E0",
"J c #D9DEE6",
"K c #E4E8ED",
"L c #FFE8E8",
"P c #FFEEEE",
"I c #EEF0F3",
"U c #EFF1F4",
"Y c gray94",
"T c #F3F3F3",
"R c #FFF0F0",
"E c #FFF1F1",
"W c #F4F6F8",
"Q c #FBFBFC",
"! c #FBFCFC",
"~ c white",
"^ c None",
/* pixels */
"^^^^^^^^^^^^^^^^^^^^^^^^^^^^^^^^^^^^^^^^^   ^^^^^^^^^^^^^^^^^^^^^^^^^^^^^^^^^^^^",
"^^^^^^^^^^^^^^^^^^^^^^^^^^^^^^^^^^^^^^  VEE ^^^^^^^^^^^^^^^^^^^^^^^^^^^^^^^^^^^^",
"^^^^^^^^^^^^^^^^^^^^^^^^^^^^^^^^^^^   EEEEE  ^^^^^^^^^^^^^^^^^^^^^^^^^^^^^^^^^^^",
"^^^^^^^^^^^^^^^^^^^^^^^^^^^^^^^^^   PEEEEEEE ^^^^^^^^^^^^^^^^^^^^^^^^^^^^^^^^^^^",
"^^^^^^^^^^^^^^^^^^^^^^^^^^^^^^^^  oEEEEEEEEE  ^^^^^^^^^^^^^^^^^^^^^^^^^^^^^^^^^^",
"^^^^^^^^^^^^^^^^^^^^^^^^^^^^^^^^  EEEEEEEEEE; ^^^^^^^^^^^^^^^^^^^^^^^^^^^^^^^^^^",
"^^^^^^^^^^^^^^^^^^^^^^^^^^^^^^^  SEEEEEEEEEEE  ^^^^^^^^^^^^^^^^^^^^^^^^^^^^^^^^^",
"^^^^^^^^^^^^^^^^^^^^^^^^^^^^^^  SEEEEEEEEEEEE  ^^^^^^^^^^^^^^^^^^^^^^^^^^^^^^^^^",
"^^^^^^^^^^^^^^^^^^^^^^^^^^^^^^  EEEEEEEEEEEEE   ^^^^^^^^^^^^^^^^^^^^^^^^^^^^^^^^",
"^^^^^^^^^^^^^^^^^^^^^^^^^^^^^  SEEEEEEEEEEEEEE  ^^^^^^^^^^^^^^^^^^^^^^^^^^^^^^^^",
"^^^^^^^^  ^^^^^^^^^^^^^^^^^^^  EEEEEEEEEEEEEEE  ^^^^^^^^^^^^^^^^^^^^^^^^^^^^^^^^",
"^^^^^^^     ^^^^^^^^^^^^^^^^  SEEEEEEEEEEEEEEE  ^^^^^^^^^^^^^^^^^^^^^^^^^^^^^^^^",
"^^^^^^  EE    ^^^^^^^^^^^^^  ZEEEEEEEEEEEEEEEEE  ^^^^^^^^^^^^^^^^^^^^^^^^^^^^^^^",
"^^^^^  EEEEE    ^^^^^^^^^^^  EEEEEEEEEEEEEEEEEE  ^^^^^^^^^^^^^^^^^^^^^^^^^^^^^^^",
"^^^^  EEEEEEEE   ^^^^^^^^^^ SEEEEEEEEEEEEEEEEEE  ^^^^^^^^^^^^^^^^^^^^^^^^^^^^^^^",
"^^^  EEEEEEEEEEE   ^^^^^^^  AEEEEEEEEEEEEEEEEEEE  ^^^^^^^^^^^^^^^^^^^^^^^^^^^^^^",
"^^^ EEEEEEEEEEEEEE   ^^^^^^  SEEEEEEEEEEEEEEEEEE  ^^^^^^^^^^^^^^^^^^^^^^^^^^^^^^",
"^^ EEEEEEEEEEEEEEEE   ^^^^^^  ZEEEEEEEEEEEEEEEEE  ^^^^^^^^^^^^^^^^^^^^^^^^^^^^^^",
"^  EEEEEEEEEEEEEEEEEE   ^^^^^  7EEEEEEEEEEEEEEEEE ^^^^^^^^^^^^^^^^^^^^^^^^^^^^^^",
"^ EEEEEEEEEEEEEEEEEEEEE  ^^^^^^  EEEEEEEEEEEEEEEE  ^^^^^^^^^^^^^^^^^^^^^^^^^^^^^",
"^ EEEEEEEEEEEEEEEEEEEEEE  ^^^^^^  EEEEEEEEEEEEEEE  ^^^^^^^^^^^^^^^^^^^^^^^^^^^^^",
"^ EEEEEEEEEEEEEEEEEEEEEEEE  ^^^^^  EEEEEEEEEEEEEE0 ^^^^^^^^^^^^^^^^^^^^^^^^^^^^^",
"^SEEEEEEEEEEEEEEEEEEEEEEEEE  ^^^^^  EEEEEEEEEEEEEx ^^^^^^^^^^^^^^^^^^^^^^^^^^^^^",
" SEEEEEEEEEEEEEEEEEEEEEEEEEEE ^^^^^^ PEEEEEEEEEEE8^^^^^^^^^^^^^^^^^^^^^^^^^^^^^^",
" SEEEEEEEEEEEEEEEEEEEEEEEEEEEE ^^^^^^ SEEEEEEEEEE-^^^^^^^^^^^^^^^^^^^^^^^^^^^^^^",
" SEEEEEEEEEEEEEEEEEEEEEEEEEEEEE ^^^^^^ SEEEEEEEEE ^^^^^^^^^^^^^^^^^^^^^^^^^^^^^^",
" SEEEEEEEEEEEEEEEEEEEEEEEEEEEEEE ^^^^^^ SEEEEEEEE ^^^^^^^^^^^^^^^^^^^^^^^^^^^^^^",
" SEEEEEEEEEEEEEEEEEEEEEEEEEEEEEEE ^^^^^^kSEEEEEEE ^^^^^^^^^^^^^^^^^^^^^^^^^^^^^^",
" SEEEEEEEEEEEEEEEEEEEEEEEEEEEEEEEE^^^^^^^ESEEEEEE ^^^^^^^^^^^^^^^^^^^^^^^^^^^^^^",
"  SSEEEEEEEEEEEEEEEEEEEEEEEEEEEEEE ^^^^^^^EC         ^^^^^^^^^^^^^^^^^^^^^^^^^^^",
"^    SSEEEEEEEEEEEEEEEEEEEEEEEEEEEE ^^^^GGGGGGGGGGGGg   ^^^^^^^^^^^^^^^^^^^^^^^^",
"^^^     SSEEEEEEEEEEEEEEEEEEEEEEEEE^^ GGffffffffffffGGG5   ^^^^^^^^^^^^^^^^^^^^^",
"^^^^^      qSEEEEEEEEEEEEEEEEEEEEEE GffffffffffffffffffGGF~~X    ^^^^^^^^^^^^^^^",
"^^^^^^^^      ,SEEEEEEEEEEEEEEEEEE ffffffffffffffffffff:~JJJJJU~~   ^^^^^^^^^^^^",
"^^^^^^^^^^^^     @SEEEEEEEEEEEEEE&ffffffffff       pff JJJJJJJJJJ~~  ^^^^^^^^^^^",
"^^^^^^^^^^^^^^^     3SREEEEEEEEE2ffffffffj~~!JJ~~~~   JJJJJJJJJJJJJ~  ^^^^^^^^^^",
"^^^^^^^^^^^^^^^^^^^    cSLEEEEE tfffffff JJJJJJJJJJ~B  JJJJJJJJ   JJT  ^^^^^^^^^",
"^^^^^^^^^^^^^^^^^^^^^^^   SSDE tfffffff JJJJJJJJJJJJQ~  JJJJJJ    ~J~  ^^^^^^^^^",
"^^^^^^^^^^^^^^^^^^^^^^^^^^^   tfffffff JJJJJJJJJJJJJJJ~  JJJJJ    ~JJ  ^^^^^^^^^",
"^^^^^^^^^^^^^^^^^^^^^^^^^^^^ ttffffff JJJJJJJJJJJJJJJJW   JJJJ     JJ  ^^^^^^^^^",
"^^^^^^^^^^^^^^^^^^^^^^^^^^^^ tfffffff JJJJJJJJJJJJJJJJJ~  JJJJM   JJJY  ^^^^^^^^",
"^^^^^^^^^^^^^^^^^^^^^^^^^^^ ttffffff#<JJJJJJJJJJJJ9 JJJK  JJJJJJJJJJJ=  ^^^^^^^^",
"^^^^^^^^^^^^^^^^^^^^^^^^^^^ tiffffff JJJJJJJJJJJJ   ~IJJ  JJJJJJJJJJJ  ^^^^^^^^^",
"^^^^^^^^^^^^^^^^^^^^^^^^^^ ttfffffff JJJJJJJJJJJm   ~~JJ  JJJJJJJJJJJ  ^^^^^^^^^",
"^^^^^^^^^^^^^^^^^^^^^^^^^^ ttfffffff JJJJJJJJJJJ     NJJ  JJJJJJJJJJJ  ^^^^^^^^^",
"^^^^^^^^^^^^^^^^^^^^^^^^^^ ttfffffff JJJJJJJJJJJJ    JJJ  JJJJJJJJJJ  ^^^^^^^^^^",
"^^^^^^^^^^^^^^^^^^^^^^^^^^ ttfffffff  JJJJJJJJJJJv  JJJ~ JJJJJJJJJJJ ^^^^^^^^^^^",
"^^^^^^^^^^^^^^^^^^^^^^^^^ 1ttffffffff JJJJJJJJJJJJJJJJJ6 JJJJJJJJJJ  ^^^^^^^^^^^",
"^^^^^^^^^^^^^^^^^^^^^^^^^ tttffffffff  JJJJJJJJJJJJJJJJ JJJJJJJJJJ       ^^^^^^^",
"^^^^^^^^^^^^^^^^^^^^^^^^^ tttfffffffff  lJJJJJJJJJJJJJ HJJJJJJJJ  b  ^^^^^ ^^^^^",
"^^^^^^^^^^^^^^^^^^^^^^^^^ tttffffffffff   JJJJJJJJJJJ    zJJJ   ffh ^^^^^^^ ^^^^",
"^^^^^^^^^^^^^^^^^^^^^^^^^  ttfffffffffff    JJJJJJJ  ff       ffff  ^^^^^^^ ^^^^",
"^^^^^^^^^^^^^^^^^^^^^^^^^^ tttffffffffffff          ffffffffffffff  ^^^^^^^^ ^^^",
"^^^^^^^^^^^^^^^^^^^^^^^^^^ ttt   ffffffffffff    fffffffffffffffff ^^^^^^^^^^^^^",
"^^^^^^^^^^^^^^^^^^^^^^^^^^  >ttffffffffffffffffffffffffffffffffff4      ^^^^^   ",
"^^^^^^^^^^^^^^^^^^^^^^^^^ ^ ttttfff$wOfffffffffffffffffffffffffff ^^^^^^^  ^^^^^",
"^^^^^^^^^^^^^^^^^^^^^^^^^^^  tttfffwwwff  fffffffffffffffffpfffff ^^^^^^^^^ ^^^^",
"^^^^^^^^^^^^^^^^^^^^^^^^ ^^^  tttffwww+f  fffffffffffffffff ffff ^^^^^^^^^^ ^^^^",
"^^^^^^^^^^^^^^^^^^^^^^^^ ^^^^  tttdf  f ffffffffffffffff fffsff  ^^^^^^^^^^ ^^^^",
"^^^^^^^^^^^^^^^^^^^^^^^^^^^^^^  tttt ffw ffffffffffffffff ff fp ^^^^^^^^^^^^^^^^",
"^^^^^^^^^^^^^^^^^^^^^^^ ^^^^^^^  t ttffaffffffffffffffffff f f ^^^^^^^^^^^^^^^^^",
"^^^^^^^^^^^^^^^^^^^^^^ ^^^^^^^^^  %ttttfffffffffffffffffff tf.^^^^^^^^^^^^^^  ^^",
"^^^^^^^^^^^^^^^^^^^^^ ^^^^^^^^^ ^   ttttyffffffffffffffffff tn^^^^^^^^^^^^^^^^^^",
"^^^^^^^^^^^^^^^^^^^  ^^^^^^^^^^ ^^^   tttttf fffffffffffft ^tf ^^^^^^^^^^^^^^^^^",
"^^^^^^^^^^^^^^^^^^^^^^^^^^^^^^^ ^^^^    ttt ttfffffffftt  ^^ fu ^^^^^^^^^^^^^^^^",
"^^^^^^^^^^^^^^^^^^^^^^^^^^^^^^^ ^^^^^^     rtttttttte   ^^^^ tf ^^^^^^^^^^^^^^^^",
"^^^^^^^^^^^^^^^^^^^^^^^^^^^^^^^ ^^^^^^^^^             ^^^^^^^ ff ^^^^^^^^^^^^^^^",
"^^^^^^^^^^^^^^^^^^^^^^^^^^^^^^^ ^^^^^^^^^ ^^^     ^^^^^^^^^^^ f  ^^^^^^^^^^^^^^^",
"^^^^^^^^^^^^^^^^^^^^^^^^^^^^^^^ ^^^^^^^^ ^^^^^^^^^^^^^^^^^^^^ *   ^^^^^^^^^^^^^^",
"^^^^^^^^^^^^^^^^^^^^^^^^^^^^^^^ ^^^^^^^ ^^^^^^^^^^^^^^^^^^^^^^    ^^^^^^^^^^^^^^",
"^^^^^^^^^^^^^^^^^^^^^^^^^^^^^^^^^^^^^^^ ^^^^^^^^^^^^^^^^^^^^^^ ^^^^^^^^^^^^^^^^^",
"^^^^^^^^^^^^^^^^^^^^^^^^^^^^^^ ^^^^^^^ ^^^^^^^^^^^^^^^^^^^^^^^^^^^^^^^^^^^^^^^^^",
"^^^^^^^^^^^^^^^^^^^^^^^^^^^^  ^^^^^^^^^^^^^^^^^^^^^^^^^^^^^^^^^^^^^^^^^^^^^^^^^^",
"^^^^^^^^^^^^^^^^^^^^^^^^^^^^^^^^^^^^^^^ ^^^^^^^^^^^^^^^^^^^^^^^^^^^^^^^^^^^^^^^^",
"^^^^^^^^^^^^^^^^^^^^^^^^^^^^^^^^^^^^^^^^ ^^^^^^^^^^^^^^^^^^^^^^^^^^^^^^^^^^^^^^^",
"^^^^^^^^^^^^^^^^^^^^^^^^^^^^^^^^^^^^^^^^^ ^^^^^^^^^^^^^^^^^^^^^^^^^^^^^^^^^^^^^^",
"^^^^^^^^^^^^^^^^^^^^^^^^^^^^^^^^^^^^^^^^^^ ^^^^^^^^^^^^^^^^^^^^^^^^^^^^^^^^^^^^^",
"^^^^^^^^^^^^^^^^^^^^^^^^^^^^^^^^^^^^^^^^^^ ^^^^^^^^^^^^^^^^^^^^^^^^^^^^^^^^^^^^^",
"^^^^^^^^^^^^^^^^^^^^^^^^^^^^^^^^^^^^^^^^^^ ^^^^^^^^^^^^^^^^^^^^^^^^^^^^^^^^^^^^^",
"^^^^^^^^^^^^^^^^^^^^^^^^^^^^^^^^^^^^^^^^^^^^^^^^^^^^^^^^^^^^^^^^^^^^^^^^^^^^^^^^"
};
