/* XPM */
static char *result[] = {
/* columns rows colors chars-per-pixel */
"32 32 13 1 ",
"  c black",
". c #154C59",
"X c #1B5A5B",
"o c #266F5D",
"O c #3E4860",
"+ c #4C5C76",
"@ c red",
"# c #378B60",
"$ c #348D61",
"% c #60748A",
"& c #92A6BA",
"* c #F98383",
"= c white",
/* pixels */
".........o            ..ooXXX...",
"X...o.X.o. O+O+O++OOO XooXXX...o",
".X.o..XXoX &&&&&&%&&% XXoXXX..o.",
"ooo.XXXXXoX %%%%%%%% XXoXXXXo.XX",
"..o.X.XXXXXo        ooooXXXo.XoX",
"X.oXXXXXXXXoo@*==*@oXo#oXXX.#ooX",
"XX.o.XXX.XoX.@*==*@Xoo#oXo.#XoXX",
"XXXo..XXXXXXX@*==*@oX#oXXX.#XoXX",
"XXXXoXXoXX.X.@*==*@XooXXXX#ooXXX",
"XXo.Xoo....oX@*==*@XXoXXX#oXoXXX",
"XXXooo...XXXX@*==*@XXoXX#XXoooXX",
"oXXXX.$XooXX.@*==*@XXXoXo##ooooo",
"XoXoXXX#oooX#@*==*@oXXXX#ooXXoXo",
"oXoooX#oooooo@*==*@oXXX#..oo.ooo",
"#ooXoXoooXooo@*==*@ooX#...o.X.XX",
"XooooooXooXoX@*==*@oo#.X.XoXXXX.",
"XoooX#oXoXXXo@*==*@X#oXXXoXXXX.X",
"XXo..#XXXXXXX@*==*@.XXXXXoo##XXX",
"XXX..o#XoXXXX@*==*@XoXXoXo..XXoX",
"XX.X.#ooXXXXX@*==*@XXXXoo..XoXXo",
"X...X#XoXXXXX@*==*@.oXXXo.X.oXXX",
"XX.X.oXXXXXXX@*==*@ooX#ooX..XXXX",
"o.XX.#XXXXXXo@*==*@Xo#XXXXoXXXX.",
"Xo.X#X.XXXoX.@*==*@Xo#X.ooXXXXXX",
"XX.XoXXoXXXoo@*==*@oo#oXXXXXXX..",
"XXo.oXo.XXXX.@*==*@o#oXXXXXo...X",
"XXXo.o.XX.X..@*==*@.Xo.oXXo...XX",
"XXX.XXo.X...        oX.XX.X...X.",
"Xo.oXXXoXX. %%%%%%%% XXXoXoo.X.X",
"X.oXXXXXo. &&&&&&%&&% X.X.oXoXXX",
"oX.oXX.X.X O+O+O++OOO .X.oXXX...",
".X..o.X.Xo            ..oXXX...."
};
