/* XPM */
static char *result[] = {
/* columns rows colors chars-per-pixel */
"80 80 132 2 ",
"   c #1B1512",
".  c #1F1A17",
"X  c #1E1D1B",
"o  c #221A17",
"O  c #291B17",
"+  c #221D1A",
"@  c #2C1D19",
"#  c #3B1C19",
"$  c #26211E",
"%  c #1C2123",
"&  c #1C272A",
"*  c #192E37",
"=  c #182F39",
"-  c #18303A",
";  c #272320",
":  c #2A2522",
">  c #2D2926",
",  c #2F2B28",
"<  c #322E2B",
"1  c #35312E",
"2  c #373331",
"3  c #3A3533",
"4  c #3D3936",
"5  c #3E3B3A",
"6  c #431D18",
"7  c #4B1E1B",
"8  c #6C231E",
"9  c #413D3B",
"0  c #45413E",
"q  c #173441",
"w  c #153B4C",
"e  c #144255",
"r  c #12465C",
"t  c #12485F",
"y  c #124A62",
"u  c #0E5676",
"i  c #0E5B7C",
"p  c #454342",
"a  c #494644",
"s  c #4C4946",
"d  c #4D4B4B",
"f  c #524E4D",
"g  c #54514F",
"h  c #545352",
"j  c #595654",
"k  c #5C5856",
"l  c #5D5B5A",
"z  c #615E5D",
"x  c #63615F",
"c  c #656362",
"v  c #696664",
"b  c #6B6967",
"n  c #6C6B6A",
"m  c #716E6D",
"M  c #73716F",
"N  c #757373",
"B  c #797676",
"V  c #7B7977",
"C  c #7D7B7A",
"Z  c #9D261F",
"A  c #942720",
"S  c #992A25",
"D  c #A62720",
"F  c #A42C27",
"G  c #AB2B25",
"H  c #B72A24",
"J  c #BA2A23",
"K  c #CF271F",
"L  c #CB281F",
"P  c #D7261D",
"I  c #CD2720",
"U  c #C12A22",
"Y  c #CA2820",
"T  c #817E7D",
"R  c #82807F",
"E  c #0C5F84",
"W  c #0C6186",
"Q  c #0A658B",
"!  c #0A6993",
"~  c #096C98",
"^  c #07709E",
"/  c #0676A8",
"(  c #0579AC",
")  c #047CB2",
"_  c #0383BC",
"`  c #0188C4",
"'  c #008FCF",
"]  c #0090CF",
"[  c #008FD0",
"{  c #0094D2",
"}  c #0598D5",
"|  c #0C98D5",
" . c #1499D6",
".. c #1B9BD7",
"X. c #1F9CD8",
"o. c #249DD8",
"O. c #2B9FDA",
"+. c #2EA0DA",
"@. c #34A2DB",
"#. c #3CA5DD",
"$. c #41A7DF",
"%. c #42A8DF",
"&. c #45A9E0",
"*. c #4CADE2",
"=. c #50AFE4",
"-. c #54B1E5",
";. c #5AB4E7",
":. c #5EB7E8",
">. c #63BAEA",
",. c #6ABEED",
"<. c #6FC0EE",
"1. c #71C2EF",
"2. c #73C3F0",
"3. c #858383",
"4. c #898786",
"5. c #8A8887",
"6. c #8C8B8A",
"7. c #918F8F",
"8. c #91908F",
"9. c #949393",
"0. c #989696",
"q. c #999897",
"w. c #9D9B9B",
"e. c #A09F9F",
"r. c #A1A09F",
"t. c #A5A4A4",
"y. c #A8A7A7",
"u. c #A9A8A7",
"i. c #AAA9A9",
"p. c #B6B3B3",
"a. c #CACACA",
"s. c None",
/* pixels */
"s.s.s.s.s.s.s.s.s.s.s.s.s.s.s.s.s.s.s.s.s.s.s.s.s.s.s.s.s.s.s.s.s.s.s.s.s.a.        < s.s.s.s.s.s.s.s.s.s.s.s.s.s.s.s.s.s.s.s.s.s.s.s.s.s.s.s.s.s.s.s.s.s.s.s.s.",
"s.s.s.s.s.s.s.s.s.s.s.s.s.s.s.s.s.s.s.s.s.s.s.s.s.s.s.s.s.s.s.s.3 a t.i.i.g T J J : . y.i.t.h > s.s.s.s.s.s.s.s.s.s.s.s.s.s.s.s.s.s.s.s.s.s.s.s.s.s.s.s.s.s.s.s.",
"s.s.s.s.s.s.s.s.s.s.s.s.s.s.s.s.s.s.s.s.s.s.s.s.s.s.s.s.s.s.: : s . 4 i.. 1 2 I Y C 2 , 4.o 9 f < $ > s.s.s.s.s.s.s.s.s.s.s.s.s.s.s.s.s.s.s.s.s.s.s.s.s.s.s.s.s.",
"s.s.s.s.s.s.s.s.s.s.s.s.s.s.s.s.s.s.s.s.s.s.s.s.s.s.s.1 0.. v i.$ e.o l g 3 . 6 A . 2 + 9 c 7.f e.; : t.> s.s.s.s.s.s.s.s.s.s.s.s.s.s.s.s.s.s.s.s.s.s.s.s.s.s.s.",
"s.s.s.s.s.s.s.s.s.s.s.s.s.s.s.s.s.s.s.s.s.s.s.$ h o y.0.V 1 z 9 i.y.> : o . . i.i.o o + . b i.t.: ; 0.o i.k : > 1 s.s.s.s.s.s.s.s.s.s.s.s.s.s.s.s.s.s.s.s.s.s.s.",
"s.s.s.s.s.s.s.s.s.s.s.s.s.s.s.s.s.s.s.s.s.. i.l : v l y.t.: , v i.k < 4.3   e.$ : e.. , < h i.i.T o 6.i.0 9.> o q.i.4 s.s.s.s.s.s.s.s.s.s.s.s.s.s.s.s.s.s.s.s.s.",
"s.s.s.s.s.s.s.s.s.s.s.s.s.s.s.s.s.s.s.3 i.1 9.0.$ o i.: $ C 9.o 0.i.i.i.i.3.$ C C 9 y.i.i.i.i.y.. b o y.+ 9.$ f h i.o i.+ s.s.s.s.s.s.s.s.s.s.s.s.s.s.s.s.s.s.s.",
"s.s.s.s.s.s.s.s.s.s.s.s.s.s.s.s.s.o + t.V d t.. j p i.$ 9 i.i.i.i.i.i.i.i.s i.t.t.y.3.i.i.i.i.i.y.i.i.j c i.n . 5.q.0.j 5.g a s.s.s.s.s.s.s.s.s.s.s.s.s.s.s.s.s.",
"s.s.s.s.s.s.s.s.s.s.s.s.s.s.s.s.S Z . < o i.: j i.4 5 i.i.i.i.i.y.i.i.i.l + i.C c i.9 i.i.i.i.i.i.i.i.i.i.v : i.: C i.d $ o # J s.s.s.s.s.s.s.s.s.s.s.s.s.s.s.s.",
"s.s.s.s.s.s.s.s.s.s.s.s.s.s.x J P U N $ 3 . i.3 i.i.e.i.i.i.i.i.4 w.d h z . i.i.t.y.+ i.k p p n i.i.i.M i.6.i.i.o z 0 4.$ > U P U : s.s.s.s.s.s.s.s.s.s.s.s.s.s.",
"s.s.s.s.s.s.s.s.s.s.s.s.s.s.m t.D H 2 X ; 6.t.i.i.i.i.7.i.p 6.i.a l p 3.V 9 3.e.y.3.X y.3.i.i.: i.i.i.z r.i.i.i.i.i.a , < 9.H J 6.0.s.s.s.s.s.s.s.s.s.s.s.s.s.s.",
"s.s.s.s.s.s.s.s.s.s.s.s.s.y.9 3 ; + w.. 6.h i.i.i.i.i.k i.i.h i.i.i.i.y.i.V y.y.y.i.4 i.i.i.i.i.l i.i.i.2 i.i.i.i.i.4 9 $ i.O 3 $ o i.s.s.s.s.s.s.s.s.s.s.s.s.s.",
"s.s.s.s.s.s.s.s.s.s.s.s.y.+ + > 4 X i.k i.i.v h c i.i.i.i.i.C 6.i.a $ < < ; < 0 f h h z z 2 3 t.i.i.i.i.i.i.d j y.4.i.9.T y.o < $ . < i.s.s.s.s.s.s.s.s.s.s.s.s.",
"s.s.s.s.s.s.s.s.s.s.s.t.$ 9 1 y.2 2 w.7.i.i.i.i.i.C e.6.o u.$ 4 a f $ e ) { ' ' [ [ [ _ y + 4 s c ; e.% i.N i.i.i.y.i.i.y.N m . 4.: : k i.s.s.s.s.s.s.s.s.s.s.s.",
"s.s.s.s.s.s.s.s.s.s.6., N B 5.0.> i.n 0., i.i.: i.i.i.6.j f 1 e { [ ' ' { [ { [ [ [ ' ' ' ' ' ' u 4 9 + b i.i.i.. i.y.d y.0 i.2 1 n < : b y.s.s.s.s.s.s.s.s.s.s.",
"s.s.s.s.s.s.s.s.s.9 > e.r.2 i.+ i.q.i.i.i.a 0.i.q.y.X d + ' ' ] { [ { ] { [ { [ { { { { ] { ] ] [ [ [ X 9 M 6.y.i.i.n l n i.4.i.a 0.m m h k 9.s.s.s.s.s.s.s.s.s.",
"s.s.s.s.s.s.s.s.s.o i.i.. y.  i.i.h v i.i.d i.i.o 3 . { ' ' { { { { { { { { { { { { { { { { { { { ' ' ' ' o v . i.i.p i.i.d i.i.i.4 i.p w.q.p s.s.s.s.s.s.s.s.s.",
"s.s.s.s.s.s.s.s.4 i.w.; 7.$ i.i.i.f i.< i.i.t.k l ) ] ] { ] { { { { { { { { } { { } { { { { { { { { ] { ' ' ' > > 6.i.i.: c j v i.i.+ i.. y.i.o s.s.s.s.s.s.s.s.",
"s.s.s.s.s.s.s.s.i.h 4 4 C t.y.i.i.t.i.i.; v 2 > ] ] ] { { { { { { { } } } } { } } } } } } } { { { { { { ] { ' ' X l 2 > y.y.c d i.i.t.; 6.X t.i.5.s.s.s.s.s.s.s.",
"s.s.s.s.s.s.s.C $ f 4 i.y.i.v i.i.i.i.i.4 ; q [ ] ] { { { { { { } } | |  .|  . . . . . .| } } { { { { { ] { { { ' W M o i.y.h 5 i.N i.i.4.: $ k y.s.s.s.s.s.s.s.",
"s.s.s.s.s.s.. 9 h : i.k i.i.i.; i.y.i., : E [ [ { { { { { { { | |  . .........X.X.X..... ... . .| } { { } { { { { ' _ C X i.3 4.: i.i.i.e.i.N : ; ; i.s.s.s.s.s.",
"s.s.s.s.s.l T 4 ; k 3 i.i.i.l i.4 i.a 3 Q { [ { { { { } } |  . ...X.X.o.o.o.o.o.o.o.o.o.o.o.X. . .| | } } { { { { { [ ` m X y.1 i.i.i.i.i.$ i.% o 2 t.s.s.s.s.s.",
"s.s.s.s.s.l : b C y.i.i.i.i.N C i.3.v r ] ] { { { { } } |  ...X.X.o.o.+.O.O.O.O.O.+.+.o.O.o.o.o.X... .| } } { { { [ [ ' ) p d i.i.i.4 i.i.i.l ; 4 + o d s.s.s.s.",
"s.s.s.s.V $ 9.7.w.X ; i.i.d i.i.i.N . ' { ] { { { } }  ...X.o.o.o.+.o.+.+.+.@.+.+.+.@.+.O.+.O.o.o.o.X... .} } { { { { { [ w , t.i.6.i.i.i.: 3.e.i.9.4 i.s.s.s.s.",
"s.s.s.s.i.i.0 k , i.i.e.c n i.i.4 > [ { { { { { } |  .....o.O.O.+.+.@.@.@.@.@.@.@.@.@.@.@.@.@.O.+.o.o.X... .| } { { { { { ' $ : i.i.i.v t.i.i.> : 6.i.q.M s.s.s.",
"s.s.s.9 o $ i.h < i.i.k n C y.v + [ ' ' { { { } |  .....o.O.O.+.@.@.@.@.@.#.#.#.#.#.#.@.@.@.@.@.+.O.O.o.o... .| } { { { ] ] ] c : y.V i.6.i.i.8.+ y.4 4 9.s.s.s.",
"s.s.s.i.. i.k v i.i.i.f i.i.i.2 * ' { { { } } |  ...o.o.O.+.@.@.@.#.@.#.#.#.#.#.#.#.#.#.#.#.@.@.@.@.+.O.o.o... .| { { { { ' ] W T i.i.i.j N i.i.6.o w.o i.s.s.s.",
"s.s.a + . $ 1 > i.i.t.i.i.i.$ N ' ' { { { { }  ...o.o.+.O.@.@.@.#.#.$.$.$.$.&.&.&.$.&.#.#.$.#.#.@.@.@.+.O.o.o.X. .} } { { { { { 1 o i.q.f i.i.i.g 6.. a $ < s.s.",
"s.s.J B . 4 o V j i.h i.i.i.j r ' { { { } } | ..o.o.+.+.@.@.#.#.#.$.&.&.&.&.&.&.&.&.&.&.&.$.$.#.#.#.@.@.+.+.o.o...| } { { { ] ' _ $ i.v i.i.y.d 6.. : o q.G s.s.",
"s.n Y K O < < c i.i.4 q.i.p 3 ' ' { { { } | ....o.+.+.@.@.@.#.#.$.&.&.&.&.*.*.*.*.*.*.*.&.&.&.$.#.#.#.@.@.+.o.o.o...| { { { { { ' 3 o i.9.9 i.i., 2 ; : K Y @ s.",
"s.7 J J G i.l s V M q.i.e.2 % ' [ { { { }  ...o.o.+.@.@.#.#.%.%.&.&.*.*.*.*.*.*.*.*.*.*.*.&.&.&.&.#.#.#.@.@.+.o.o... .} { { ] ] ] u B t.i.i.q.3 0.$ i.F J J S s.",
"s.n d 1 > $ < u.N i.h i.i.d ' ' { { { { |  .o.o.+.+.@.@.#.#.%.&.&.*.*.*.*.*.-.-.-.=.=.-.*.*.*.&.&.%.#.#.@.@.+.+.+.X...| } { { { ] ' B 3.y.z 7.: i.h o + > 3 z s.",
"s.r.. > $ 5 C . V i.i.i.< k ] ] { { { }  ...o.O.O.@.@.#.#.$.%.&.*.*.*.-.-.-.;.-.-.-.-.-.-.*.*.*.*.&.#.$.#.@.@.O.O.o.X. .{ { { { ' ' < . i.N i.w.o n : : 4 $ i.s.",
"s.i.. 5 : 9.w.i.i.i.f i.< X ] { { { } |  .o.o.O.@.@.#.#.$.$.*.*.*.*.-.-.-.;.;.;.;.;.;.-.-.-.-.*.*.&.&.&.#.#.@.@.O.o.o. .| { { { { ] u < i.t.i.y.i.6.: $ 4 o i.s.",
"s.i.t.1 > > i.i.t.4 a w.< _ ] ] { { {  ...o.o.O.@.@.#.#.%.*.*.*.-.*.;.;.;.;.;.:.:.:.:.;.;.-.-.*.*.&.&.&.#.#.@.@.O.o.o...| } } { ' ' ' 4 9.< h y.i.i.a w.c 4.w.s.",
"s.6., i.7.2 i.i.i.i.i.y.> ' ] { { { {  ...o.O.@.@.#.#.$.&.&.*.*.-.-.;.;.:.:.:.>.>.:.>.:.;.;.-.-.=.*.&.&.&.#.#.@.@.O.o.X. .} { { { { ' 3 N i.n h i.i.t.i.i.d 9 f ",
"c $ x e.w.6.i.d i.k i.n , ' ] ] { } }  .o.o.O.O.@.#.#.$.*.*.*.=.-.;.;.:.>.>.>.>.>.>.>.>.:.;.;.-.=.*.&.&.&.#.#.@.+.+.o.X. .| { { ] ] ' > , i.c z i.i.i.6.0.k . $ ",
"9 x g . . i.i.h d i.i., : ' { { { } |  .o.o.O.@.@.#.#.&.&.*.*.=.-.;.;.>.>.>.>.,.,.>.>.>.>.;.;.-.-.*.*.*.&.$.#.@.@.+.o.X...} { } { { ' . . i.i.h i.i.y.. . h y.1 ",
"  i.3., 4.i.i.p i.i.i.: $ ] ] { } { |  .X.o.O.@.#.#.$.&.%.*.=.-.-.;.:.>.>.>.<.<.,.,.,.>.>.:.;.;.-.*.*.&.&.#.#.@.@.+.o.X. .| } { { [ [ % ; i.i.0.i.i.i.0.c f i.f ",
"o k 0 u.i.4.M k p 1 > > $ ] ] { { } | ..o.O.O.@.@.#.#.%.*.*.=.=.;.:.>.>.>.<.<.<.2.<.,.>.>.:.;.;.-.=.*.*.&.#.#.#.@.+.+.o...| } { { { [ - > 4 f b C 9.t.i.6.b 9 j ",
"s.o 6.i.i.i.i.i.i.3 i.2 % [ ] { { } | ..o.+.+.@.#.#.#.&.*.*.=.-.;.;.:.>.>.<.<.2.2.<.,.>.>.:.:.;.-.=.*.&.&.#.#.@.@.+.O.o. .| } { { ] ] w < i.0.n i.i.i.i.4.6.o s.",
"s.i.< R w.i.i.v i.3.i.1 : [ ' { { } | ..X.o.+.@.@.#.$.%.*.*.=.-.;.;.>.>.>.<.2.2.2.<.<.>.>.>.;.;.-.=.*.*.&.&.#.#.@.+.o.o...| } { { ] ] q , i.i.i.q.i.i.6.l > y.s.",
"s.i.t.. . i.i.c c 5 i.: 2 ' { { { } | ..o.o.O.@.#.#.$.%.&.*.=.-.;.;.:.>.>.<.<.<.<.<.<.>.>.:.;.-.-.*.*.&.&.#.#.@.@.+.o.o...| } { { ] ] & $ i.i.i.n i.i.. o C y.s.",
"s.4 $ N 4.i.i.i.4.i.i.+ h [ [ { { } }  .o.o.O.@.@.#.$.%.&.*.*.-.-.;.;.>.>.>.>.<.>.<.>.>.>.:.;.-.-.=.*.&.&.&.#.#.+.+.o.o. .} } { { { ' + + i.e.6.i.i.i.9.w.2 < s.",
"j 4 3.i.i.q.9.h ; p 4.j m ' [ { { } }  .X.o.O.@.@.#.#.$.*.*.*.=.-.;.;.:.>.>.>.>.>.>.>.:.:.:.;.-.=.*.*.&.&.#.#.@.@.O.o.X...} { { { ' ' 4 % t.M 2 : b w.i.i.9., > ",
"s.s d 6.w.p i.i.q.i.i.w.b ' { [ { { }  .X.o.O.O.@.#.#.$.%.%.*.=.-.;.;.;.:.:.>.>.>.>.>.:.;.;.-.-.=.*.*.&.&.#.@.@.+.O.o... .} { { { { ' b l i.p l i.i.t.i.9.4 q.3 ",
"s.0 y.> 4 o i.i.p i.i.i.n ` { { { { {  ...o.O.O.@.@.#.$.%.*.*.=.*.-.-.;.;.:.:.:.>.:.:.;.;.-.-.-.*.*.&.&.#.#.@.@.+.O.o...| } } { { ' ' N y.i.z i.i.i.l 4.o y., s.",
"s.i.> o . g i.i.h y.i.i.m = { { { { { |  .o.o.O.@.@.#.#.$.%.%.*.*.-.-.-.;.;.;.;.;.;.;.;.;.-.*.*.*.*.&.#.#.#.#.@.O.o.o...} } { { ] ] ( C i.i.i.f w.i.+ . ; o 5.s.",
"s.w.. w.0.1 i.i.l 9 f y.% . { { { { { }  .X.o.O.O.@.@.#.#.%.%.*.*.*.=.=.=.;.-.-.;.;.-.=.=.=.*.*.&.&.$.#.#.@.@.O.O.o.X. .| { { { [ ] . 0 y.i.i.p i.i.< < t.; y.s.",
"s.< $ 3 i.y.y.u.t.: 6.i.w.$ ' ] { { { { | ..o.o.O.@.@.#.#.#.%.%.%.*.*.=.=.=.=.=.=.=.=.=.=.*.*.&.&.&.&.#.#.@.@.O.o.o...| { { { { { [ > f i.i.> 3.i.i.y.i.s l C s.",
"s.M 0.4.n R o u.i.i.i.C i.> e ] ] { { } |  .X.o.O.O.@.@.#.#.$.$.%.*.*.=.=.=.=.=.=.=.*.*.*.*.*.&.&.#.#.@.@.@.O.O.o.X. .| { { { ] [ _ 9 i.i.i.i.i.y.l i.C 4.f ; s.",
"s.s.i.4 . 9 : w.v 8.i.t.i.$ x ' { { { { } |  .o.o.O.O.@.@.#.#.#.%.%.&.&.&.*.*.*.*.*.*.*.&.&.&.#.#.#.#.#.@.@.O.o.o...| { { { { { ' 2 1 i.w.C i.z 0.k ; 4 > i.s.s.",
"s.s.g . . . o T i.d 5 i.i.u.C ) ] { { { { }  ...o.O.O.@.@.#.#.#.$.$.$.%.%.&.&.&.&.&.&.&.&.&.&.#.#.#.@.@.@.O.o.o... .} { { { { ' [ v t.y.i.i.. i.w.< . . . 4 0.s.",
"s.s.S H H F u.a 7.X h i.t.x o $ ] ] ] { { } |  ...o.o.O.O.@.@.#.#.$.$.$.$.$.&.&.%.&.&.&.#.#.#.#.#.@.@.@.O.O.o.X. .| } { { { { ' . ; y.d i.i.b y.; i.F H H F s.s.",
"s.s.9 Y I @ 1 < $ i.6.C i.n i.$ Q ] { { { } } |  .X.o.o.O.@.@.@.@.#.#.#.#.#.$.#.$.#.#.#.#.#.#.#.@.@.O.O.o.o.X. .| } { { { { ' ` > w.i.V i.2 i.2 : . + Y Y # s.s.",
"s.s.s.U : o > $ p 7.i.i.d i.i.$ p ' ' { { { { } | ..X.o.o.O.O.@.@.@.@.#.#.#.#.#.#.#.#.#.#.@.@.+.@.O.O.o.o.X. . .} { { { ] ' { 9 < i.v N i.i.i.> . 3 . h U s.s.s.",
"s.s.s.a . 3 $ < b i.i.i.N e.i.i.n ; ] { { { { { } |  .X.o.o.o.+.O.@.@.@.@.#.@.@.@.@.#.@.@.@.O.@.+.O.o.o.X...| } } { { { ' ' * m i.i.i.h i.i.i.> p $ $ o 6.s.s.s.",
"s.s.s.s.y.. 5 j y.g i.i.q.9.i.l w.h u ] ' { { { { } |  ...o.o.o.O.O.O.@.+.@.@.+.@.@.+.+.+.+.O.O.o.o.X.X. .| } { { { { { ' ` s b $ i.t.e.i.i.i.i.N 5 o i.s.s.s.s.",
"s.s.s.s.l y.N o 3 i.i.i.i.i.3 i.i.3 > ' ' ] { { { { } }  . ...o.o.o.O.o.O.O.O.+.O.O.O.O.O.O.o.o.X.....| | { { { { { { ' ' $ o i.i.q.9.9.i.i.N > $ R N   s.s.s.s.",
"s.s.s.s.s.w.c w.. w.o i.6.i.i.i.i.i.o . ' ' ] { { { { } } |  .......o.o.o.o.O.o.O.o.o.o.o.o.X..... .| } } { { { { { ' ' o 9 i.i.h i.i.> i.h i.. w.6.i.s.s.s.s.s.",
"s.s.s.s.s.p.9.6.e.o i.: i.i.8.h d i.i.4 : ' ' { { { { { { { } }  . . ...o...o.o.X.X.X.X..... . .| } } { { { { { { ] { : z i.i.C 6.i.i.i.n y.o w.g s 0 s.s.s.s.s.",
"s.s.s.s.s.s.a C 9 q.o w.i.i.i.t.6.i.; i.< 2 _ { { { { { { { } } } | |  . . . . ..... . .| | | } } { { { { { ] { ' ' < p i.N i.i.m i.i.i.l 3 0.$ y.8.s.s.s.s.s.s.",
"s.s.s.s.s.s.s.N w.+ 4.v p i.i.i.i.> i.i.i.. d e ] ' { { { { { } { } } { } } | | } } } } } } } { { { { { { ' ' { ^ a $ i.i.i.3.i.i.i.i.> e.C p t.< s.s.s.s.s.s.s.",
"s.s.s.s.s.s.s.v . t.v h i.$ i.i.1 i.i.i.l i.0 C o [ [ [ { { { { { { { { { { { [ { } { } { { { { { { { { { ] ' . V + i.N h i.i.9.i.i.x i.p 0.u.. : s.s.s.s.s.s.s.",
"s.s.s.s.s.s.s.s.s.o i.y.; i.1 4 i.i.t.h i.i.3.i.c , t { ' { ' { { { { { { { { { { { { { { { { { ' ] { ' ' ~ 1 N w.i.i.i.a p i.i.e.9.i.X i.i.. s.s.s.s.s.s.s.s.s.",
"s.s.s.s.s.s.s.s.s.s.. i.i.o i.d i.i.y.y.i.; i.i.i.2 > a E ' ' ' ' { ' { ] { { { { { ] { ] { ] { ] ' ' / < : $ i.i.i.B i.i.h i.i.q.i.. i.w.o s.s.s.s.s.s.s.s.s.s.",
"s.s.s.s.s.s.s.s.s.s.s.. w.t.p y.0 i.i.i.V i.i.m i.i.< ; 3.g % ' { ' [ { ' { { ' { ' ] { { ' { [ ' = k 3.: f i.i.n w.i.: i.i.i.6.0.: w.v $ x s.s.s.s.s.s.s.s.s.s.",
"s.s.s.s.s.s.s.s.s.s.s.o $ m C N n ; i.i.i.9.j V i.i.i.i.i.a : < 1 X i { ' ' ' ' ' ' ' ' [ ! . $ : ; < i.i.i.w.c i.T i.i.R i.f 4 2 c 1 1 . s.s.s.s.s.s.s.s.s.s.s.",
"s.s.s.s.s.s.s.s.s.s.s.s.T > 4 2 w.: g T g y.6.q.i.: i.i.y.i.t.y.p , d f j z z l z n V n c l 9 : y.s i.i.i.n c y.l h i.> i.o : l $ + j 0 k s.s.s.s.s.s.s.s.s.s.s.",
"s.s.s.s.s.s.s.s.s.s.s.s.s.i.4 : : i.: > i.: i.6.i.i.i.i.u.i.; i.R 3.y.< y.4.p 2 < 9 C t.0.i.i.i.a V i.i.N i.y.0.i.i.o 7.. k i.1 1 6.u.z s.s.s.s.s.s.s.s.s.s.s.s.",
"s.s.s.s.s.s.s.s.s.s.s.s.s.s.i.+ $ o $ 1 C C t.t.+ i.i.b q.y.t.u.n 3.i.3.t.i.y.i.i.i.4.d y.i.i.v 5 m i.i.i.i.i.C i.i.p u.X 1 $ g 1 i.6.s.s.s.s.s.s.s.s.s.s.s.s.s.",
"s.s.s.s.s.s.s.s.s.s.s.s.s.s.s.0.T 3 . 3.@ 4.3 4 i.i.i.i.i.t.i.i.i.C i.y.t.e.n n i.y.i.i.h i.i.i.i.i.a i.j i.i.i.v > : $ d . 4 d i.s.s.s.s.s.s.s.s.s.s.s.s.s.s.s.",
"s.s.s.s.s.s.s.s.s.s.s.s.s.s.s.s.p . < U G o , y.y.4 i.i.i.+ i.y.c i.i.i.y.f z i.i.9.n 4.6.3.c i.i.i.V 9.i.i.v 9.C 4 . 8 U o o l s.s.s.s.s.s.s.s.s.s.s.s.s.s.s.s.",
"s.s.s.s.s.s.s.s.s.s.s.s.s.s.s.s.s.O Y K 6 ; $ o 4 t.t.. t.y.i.y.i.i.q.i.i.i.i.i.i.i.i.i.i., i.i.i.i.i.i.o y.i.+ s : > : Y I 8 s.s.s.s.s.s.s.s.s.s.s.s.s.s.s.s.s.",
"s.s.s.s.s.s.s.s.s.s.s.s.s.s.s.s.s.s.s J p . 2 0.; < 9.a . 6.$ 4.i.i.s y.i.i.i.i.i.i.i.i.i.5 i.i.q.. 3 n C z o < i.o . 9.H o s.s.s.s.s.s.s.s.s.s.s.s.s.s.s.s.s.s.",
"s.s.s.s.s.s.s.s.s.s.s.s.s.s.s.s.s.s.s.s.4 8.i.: p n , i.y.+ 4 y.i.b o $ p V w.e.t.w.3.d . $ i.i.i., : i.t.z : z h i.y., s.s.s.s.s.s.s.s.s.s.s.s.s.s.s.s.s.s.s.s.",
"s.s.s.s.s.s.s.s.s.s.s.s.s.s.s.s.s.s.s.s.s.s.C 4.y.o y.b t.9 2 l i.N o < 4.e.t.> v i.t.6.o ; l i., ; 4.c w.n o q.w.h s.s.s.s.s.s.s.s.s.s.s.s.s.s.s.s.s.s.s.s.s.s.",
"s.s.s.s.s.s.s.s.s.s.s.s.s.s.s.s.s.s.s.s.s.s.s.s.s.2 w.h 9., z w.3 t.> 4 c i.9.o 3 i.i.> < k i.o r.; > i.N C f s.s.s.s.s.s.s.s.s.s.s.s.s.s.s.s.s.s.s.s.s.s.s.s.s.",
"s.s.s.s.s.s.s.s.s.s.s.s.s.s.s.s.s.s.s.s.s.s.s.s.s.s.s.3.< T + e.y.$ 1 u.l N $ 9.k l $ w.3.< : i.e.. c 0.n s.s.s.s.s.s.s.s.s.s.s.s.s.s.s.s.s.s.s.s.s.s.s.s.s.s.s.",
"s.s.s.s.s.s.s.s.s.s.s.s.s.s.s.s.s.s.s.s.s.s.s.s.s.s.s.s.s.s.s.s.s.s.j : < $ h 9.7.. l 1 o 2 s.s.s.s.s.s.s.s.s.s.s.s.s.s.s.s.s.s.s.s.s.s.s.s.s.s.s.s.s.s.s.s.s.s."
};
