/* XPM */
static char *result[] = {
/* columns rows colors chars-per-pixel */
"32 32 24 1 ",
"  c black",
". c #232936",
"X c #2B3443",
"o c #154C59",
"O c #1C4C59",
"+ c #1B5A5B",
"@ c #36424E",
"# c #264C58",
"$ c #254D5A",
"% c #26515D",
"& c #205A5B",
"* c #215A5B",
"= c #215B5C",
"- c #29595A",
"; c #295B5C",
": c #295E5F",
"> c #266F5D",
", c #2A6F5D",
"< c #316F5E",
"1 c #2A705E",
"2 c #317261",
"3 c #525E69",
"4 c #378B60",
"5 c #348D61",
/* pixels */
"ooooooooo>            oo>>+++ooo",
"+ooo>o+o>o ...XX.X.X. +>>+++ooo>",
"o+o>oo++>+ @33@333333 ++>+++oo>o",
">>>o+++++>+ @@@@@@@@ ++>++++>o++",
"oo>o+o+++++>        >>>>+++>o+>+",
"+o>++++++++>>#;::;->+>4>+++o4>>+",
"++o>o+++o+>+o-$%:<-+>>4>+>o4+>++",
"+++>oo+++++++#;2:;->+4>+++o4+>++",
"++++>++>++o+o-;%:<-+>>++++4>>+++",
"++>o+>>oooo>+#<::;-++>+++4>+>+++",
"+++>>>ooo++++O&=1,*++>++4++>>>++",
">++++o5+>>++o+++>>>+++>+>44>>>>>",
"+>+>+++4>>>+4+++++>>++++4>>++>+>",
">+>>>+4>>>>>>44+++>>+++4oo>>o>>>",
"4>>+>+>>>+>>>>>4++4>>+4ooo>o+o++",
"+>>>>>>+>>+>+>>>44>>>4o+o+>++++o",
"+>>>+4>+>+++>++>>>++4>+++>++++o+",
"++>oo4+++++++++oo>oo+++++>>44+++",
"+++oo>4+>++++>++>+o+>++>+>oo++>+",
"++o+o4>>++++++>>oo>++++>>oo+>++>",
"+ooo+4+>++++++>o>o+o>+++>o+o>+++",
"++o+o>+++++++>++ooo>>+4>>+oo++++",
">o++o4++++++>+oo+o++>4++++>++++o",
"+>o+4+o+++>+ooooo+++>4+o>>++++++",
"++o+>++>+++>>oo++++>>4>+++++++oo",
"++>o>+>o++++o>ooo++>4>+++++>ooo+",
"+++>o>o++o+oo#<%:$-o+>o>++>ooo++",
"+++o++>o+ooo        >+o++o+ooo+o",
"+>o>+++>++o @@@@@@@@ +++>+>>o+o+",
"+o>+++++>o @33@333333 +o+o>+>+++",
">+o>++o+o+ ...XX.X.X. o+o>+++ooo",
"o+oo>o+o+>            oo>+++oooo"
};
