/* XPM */
static char *result[] = {
/* columns rows colors chars-per-pixel */
"80 80 256 2 ",
"   c #092B01",
".  c #0C3802",
"X  c #123C04",
"o  c #1B3807",
"O  c #132E10",
"+  c #243C11",
"@  c #061A01",
"#  c #0B4601",
"$  c #134404",
"%  c #154B03",
"&  c #1A4C03",
"*  c #1B4507",
"=  c #1D5402",
"-  c #1C5B02",
";  c #165404",
":  c #234D07",
">  c #235403",
",  c #245C03",
"<  c #2B5D04",
"1  c #24530B",
"2  c #255B0A",
"3  c #2B5C0A",
"4  c #2C530E",
"5  c #325808",
"6  c #264A15",
"7  c #275813",
"8  c #325C17",
"9  c #1E6400",
"0  c #256302",
"q  c #2B6403",
"w  c #2C6B03",
"e  c #2C630A",
"r  c #2D6B0A",
"t  c #256606",
"y  c #316404",
"u  c #326C04",
"i  c #3B6D04",
"p  c #346B0B",
"a  c #3B6E0C",
"s  c #35640A",
"d  c #2C7404",
"f  c #347303",
"g  c #3A7404",
"h  c #357A03",
"j  c #3C7B04",
"k  c #35730B",
"l  c #3C750B",
"z  c #3C7B0A",
"x  c #357A0B",
"c  c #2C6614",
"v  c #336315",
"b  c #356D12",
"n  c #396A18",
"m  c #3C7413",
"M  c #3D7B13",
"N  c #3A7617",
"B  c #335B2E",
"V  c #3A6823",
"C  c #366E2D",
"Z  c #466C08",
"A  c #427C03",
"S  c #42740D",
"D  c #437C0C",
"F  c #4B7C0A",
"G  c #467607",
"H  c #577A09",
"J  c #446B16",
"K  c #427314",
"L  c #437B14",
"P  c #4C7D13",
"I  c #437C1B",
"U  c #47781B",
"Y  c #547510",
"T  c #436924",
"R  c #487A25",
"E  c #4B7935",
"W  c #4E7130",
"Q  c #64712D",
"!  c #555520",
"~  c #917F45",
"^  c #936037",
"/  c #3D8303",
"(  c #3E820A",
")  c #3B8A03",
"_  c #3E8315",
"`  c #448304",
"'  c #4B8404",
"]  c #448A03",
"[  c #4B8C03",
"{  c #44840B",
"}  c #4A850B",
"|  c #458B0B",
" . c #4C8C0B",
".. c #518605",
"X. c #528C04",
"o. c #538C0B",
"O. c #5A8D0C",
"+. c #568708",
"@. c #4D9303",
"#. c #4D920B",
"$. c #479405",
"%. c #539404",
"&. c #5B9504",
"*. c #559B03",
"=. c #5B9C04",
"-. c #54930B",
";. c #5B950B",
":. c #559A0B",
">. c #5C9B0B",
",. c #458313",
"<. c #4B8414",
"1. c #4C8C13",
"2. c #45841A",
"3. c #4A831B",
"4. c #4B8A1B",
"5. c #458913",
"6. c #538C14",
"7. c #538C1B",
"8. c #5A8D1C",
"9. c #558616",
"0. c #4D9211",
"q. c #4C951B",
"w. c #549413",
"e. c #5B9513",
"r. c #569A14",
"t. c #5C9C14",
"y. c #53931B",
"u. c #5B941B",
"i. c #5B9B1B",
"p. c #559B1A",
"a. c #648C06",
"s. c #639B04",
"d. c #63940B",
"f. c #639D0B",
"g. c #699808",
"h. c #729A07",
"j. c #668618",
"k. c #619414",
"l. c #629C14",
"z. c #639D1C",
"x. c #699A19",
"c. c #769B1A",
"v. c #748F12",
"b. c #5DA303",
"n. c #5DA20B",
"m. c #59A508",
"M. c #5CA212",
"N. c #5DA119",
"B. c #5AA716",
"V. c #4CA007",
"C. c #64A404",
"Z. c #6AA503",
"A. c #65AA04",
"S. c #6BAC04",
"D. c #63A30C",
"F. c #6AA40C",
"G. c #65AB0B",
"H. c #6BAB0C",
"J. c #73AC0B",
"K. c #75A809",
"L. c #6CB204",
"P. c #6BB20B",
"I. c #74B20B",
"U. c #79B60D",
"Y. c #77B506",
"T. c #63A313",
"R. c #6AA413",
"E. c #64AA13",
"W. c #6CAB14",
"Q. c #64A31B",
"!. c #6BA41B",
"~. c #6DAB1C",
"^. c #65AA1A",
"/. c #73AC14",
"(. c #73AB1B",
"). c #77A918",
"_. c #6DB213",
"`. c #6BB219",
"'. c #74B214",
"]. c #7BB413",
"[. c #7BBB14",
"{. c #75B31C",
"}. c #7DBC1B",
"|. c #78B718",
" X c #4B8824",
".X c #538B24",
"XX c #578828",
"oX c #549323",
"OX c #5B9223",
"+X c #5D9C25",
"@X c #5C942B",
"#X c #5B9B2B",
"$X c #559629",
"%X c #5C9835",
"&X c #54912F",
"*X c #639C22",
"=X c #6B9C24",
"-X c #669A2A",
";X c #629B34",
":X c #669938",
">X c #6D8D2F",
",X c #5DA525",
"<X c #64A324",
"1X c #6BA422",
"2X c #6CAA24",
"3X c #6BA52B",
"4X c #6CAB2C",
"5X c #64A628",
"6X c #73AC24",
"7X c #76A726",
"8X c #7AB423",
"9X c #77B628",
"0X c #68A636",
"qX c #75AB36",
"wX c #79B637",
"eX c #6CB329",
"rX c #7AC134",
"tX c #7CC211",
"yX c #6B9349",
"uX c #6DA645",
"iX c #7BB346",
"pX c #75AF4B",
"aX c #7FB169",
"sX c #5F8445",
"dX c #83B809",
"fX c #84B716",
"gX c #88A917",
"hX c #A3BC14",
"jX c #82BA25",
"kX c #82AC37",
"lX c #82BA3A",
"zX c #93B332",
"xX c #809F2B",
"cX c #8AC418",
"vX c #8AC514",
"bX c #A7CA13",
"nX c #86C326",
"mX c #99C528",
"MX c #89C438",
"NX c #93C538",
"BX c #9CD622",
"VX c #B0D435",
"CX c #D7E92F",
"ZX c #EBE915",
"AX c #87BC57",
"SX c #8CB24B",
"DX c #999E5E",
"FX c #90C950",
"GX c #A6C950",
"HX c #A6D668",
"JX c #B3DD66",
"KX c #D0E162",
"LX c #CFE497",
"PX c #E6F1D0",
"IX c #A9C88E",
"UX c None",
/* pixels */
"UXUXUXUXUXUXUXUXUXUXUXUXUXUXUXUXUXUXUXUXUXUXUXUXUXUXUXUXUXUXUXUXUXUXUXUXUXUXUXUXUXUXUXUXUXUXUXUXUXUXUXUXUXUXUXUXUXUXUXUXUXUXUXUXUXUXUXUXUXUXUXUXUXUXUXUXUXUXUXUX",
"UXUXUXUXUXUXUXUXUXUXUXUXUXUXUXUXUXUXUXUXUXUXUXUXUXUXUXUXUXUXUXUXUXUXUXUXUXUXUXUXUXUXUXUXUXUXUXUXUXUXUXUXUXUXUXUXUXUXUXUXUXUXUXUXUXUXUXUXUXUXUXUXUXUXUXUXUXUXUXUX",
"UXUXUXUXUXUXUXUXUXUXUXUXUXUXUXUXUXUXUXUXUXUXUXUXUXUXUXUXUXUXUXUXUXUXUXUXUXUXUXUXUXUXUXUXUXUXUXUXUXUXUXUXUXUXUXUXUXUXUXUXUXUXUXUXUXUXUXUXUXUXUXUXUXUXUXUXUXUXUXUX",
"UXUXUXUXUXUXUXUXUXUXUXUXUXUXUXUXUXUXUXUXUXUXUXUXUXUXUXUXUXUXUXUXUXUXUXUXUXUXUXUXUXUXUXUXUXUXUXUXUXUXUXUXUXUXUXUXUXUXUXUXUXUXUXUXUXUXUXUXUXUXUXUXUXUXUXUXUXUXUXUX",
"UXUXUXUXUXUXUXUXUXUXUXUXUXUXUXUXUXUXUXUXUXUXUXUXUXUXUXUXUXUXUXUXUXUXUXUXUXUXUXUXUXUXUXUXUXUXUXUXUXUXUXUXUXUXUXUXUXUXUXUXUXUXUXUXUXUXUXUXUXUXUXUXUXUXUXUXUXUXUXUX",
"UXUXUXUXUXUXUXUXUXUXUXUXUXUXUXUXUXUXUXUXUXUXUXUXUXUXUXUXUXUXUXUXUXUXUXUXUXUXUXUXUXUXUXUXUXUXUXUXUXUXUXUXUXUXUXUXUXUXUXUXUXUXUXUXUXUXUXUXUXUXUXUXUXUXUXUXUXUXUXUX",
"UXUXUXUXUXUXUXUXUXUXUXUXUXUXUXUXUXUXUXUXUXUXUXUXUXUXUXUXUXUXUXUXUXUXUXUXUXUXUXUXUXUXUXUXUXUXUXUXUXUXUXUXUXUXUXUXUXUXUXUXUXUXUXUXUXUXUXUXUXUXUXUXUXUXUXUXUXUXUXUX",
"UXUXUXUXUXUXUXUXUXUXUXUXUXUXUXUXUXUXUXUXUXUXUXUXUXUXUXUXUXUXUXUXUXUXUXUXUXUXUXUXUXUXUXUXUXUXUXUXUXUXUXUXUXUXUXUXUXUXUXUXUXUXUXUXUXUXUXUXUXUXUXUXUXUXUXUXUXUXUXUX",
"UXUXUXUXUXUXUXUXUXUXUXUXUXUXUXUXUXUXUXUXUXUXUXUXUXUXUXUXUXUXUXUXUXUXUXUXUXUXUXUXUXUXUXUXUXUXUXUXUXUXUXUXUXUXUXUXUXUXUXUXUXUXUXUXUXUXUXUXUXUXUXUXUXUXUXUXUXUXUXUX",
"UXUXUXUXUXUXUXUXUXUXUXUXUXUXUXUXUXUXUXUXUXUXUXUXUXUXUXUXUXUXUXUXUXUXUXUXUXUXUXUXUXUXUXUXUXUXUXUXUXUXUXUXUXUXUXUXUXUXUXUXUXUXUXUXUXUXUXUXUXUXUXUXUXUXUXUXUXUXUXUX",
"UXUXUXUXUXUXUXUXUXUXUXUXUXUXUXUXUXUXUXUXUXUXUXUXUXUXUXUXUXUXUXUXUXUXUXUXUXUXUXUXUXUXUXUXUXUXUXUXUXUXUXUXUXUXUXUXUXUXUXUXUXUXUXUXUXUXUXUXUXUXUXUXUXUXUXUXUXUXUXUX",
"UXUXUXUXUXUXUXUXUXUXUXUXUXUXUXUXUXUXUXUXUXUXUXUXUXUXUXUXUXUXUXUXUXUXUXUXUXUXUXUXUXUXUXUXUXUXUXUXUXUXUXUXUXUXUXUXUXUXUXUXUXUXUXUXUXUXUXUXUXUXUXUXUXUXUXUXUXUXUXUX",
"UXUXUXUXUXUXUXUXUXUXUXUXUXUXUXUXUXUXUXUXUXUXUXUXUXUXUXUXUXUXUXUXUXUXUXUXUXUXUXUXUXUXUXUXUXUXUXUXUXUXUXUXUXUXUXUXUXUXUXUXUXUXUXUXUXUXUXUXUXUXUXUXUXUXUXUXUXUXUXUX",
"UXUXUXUXUXUXUXUXUXUXUXUXUXUXUXUXUXUXUXUXUXUXUXUXUXUXUXUXUXUXUXUXUXUXUXUXUXUXUXUXUXUXUXUXUXUXUXUXUXUXUXUXUXUXUXUXUXUXUXUXUXUXUXUXUXUXUXUXUXUXUXUXUXUXUXUXUXUXUXUX",
"UXUXUXUXUXUXUXUXUXUXUXUXUXUXUXUXUXUXUXUXUXUXUXUXUXUXUXUXUXUXUXUXUXUXUXUXUXUXUXUXUXUXUXUXUXUXUXUXUXUXUXUXUXUXUXUXUXUXUXUXUXUXUXUXUXUXUXUXUXUXUXUXUXUXUXUXUXUXUXUX",
"UXUXUXUXUXUXUXUXUXUXUXUXUXUXUXUXUXUXUXUXUXUXUXUXUXUXUXUXUXUXUXUXUXUXUXUXUXUXUXUXUXUXUXUXUXUXUXUXUXUXUXUXUXUXUXUXUXUXUXUXUXUXUXUXUXUXUXUXUXUXUXUXUXUXUXUXUXUXUXUX",
"UXUXUXUXUXUXUXUXUXUXUXUXUXUXUXUXUXUXUXUXUXUXUXUXUXUXUXUXUXUXUXUXUXUXUXUXUXUXUXUXUXUXUXUXUXUXUXUXUXUXUXUXUXUXUXUXUXUXUXUXUXUXUXUXUXUXUXUXUXUXUXUXUXUXUXUXUXUXUXUX",
"UXUXUXUXUXUXUXUXUXUXUXUXUXUXUXUXUXUXUXUXUXUXUXUXUXUXUXUXUXUXUXUXUXUXUXUXUXUXUXUXUXUXUXUXUXUXUXUXUXUXUXUXUXUXUXUXUXUXUXUXUXUXUXUXUXUXUXUXUXUXUXUXUXUXUXUXUXUXUXUX",
"UXUXUXUXUXUXUXUXUXUXUXUXUXUXUXUXUXUXUXUXUXUXUXUXUXUXUXUXUXUXUXUXUXUXUXUXUXUXUXUXUXUXUXUXUXUXUXUXUXUXUXUXUXUXUXUXUXUXUXUXUXUXUXUXUXUXUXUXUXUXUXUXUXUXUXUXUXUXUXUX",
"UXUXUXUXUXUXUXUXUXUXUXUXUXUXUXUXUXUXUXUXUXUXUXUXUXUXUXUXUXUXUXUXUXUXUXUXUXUXUXUXUXUXUXUXUXUXUXUXUXUXUXUXUXUXUXUXUXUXUXUXUXUXUXUXUXUXUXUXUXUXUXUXUXUXUXUXUXUXUXUX",
"UXUXUXUXUXUXUXUXUXUXUXUXUXUXUXUXUXUXUXUXUXUXUXUXUXUXUXUXUXUXUXUXUXUXUXUXUXUXUXUXUXUXUXUXUXUXUXUXUXUXUXUXUXUXUXUXUXUXUXUXUXUXUXUXUXUXUXUXUXUXUXUXUXUXUXUXUXUXUXUX",
"UXUXUXUXUXUXUXUXUXUXUXUXUXUXUXUXUXUXUXUXUXUXUXUXUXUXUXUXUXUXUXUXUXUXUXUXUXUXUXUXUXUXUXUXUXUXUXUXUXUXUXUXUXUXUXUXUXUXUXUXUXUXUXUXUXUXUXUXUXUXUXUXUXUXUXUXUXUXUXUX",
"9.UXUXUXUXUXUXUXUXUXUXUXUXUXUXUXUXUXUXA.UXUXUXUXUXUXUXUXUXUXUXUXUXUXUXUXUXUXUXUXUXUXUXUXUXUXUXUXUXUXUXUXUXUXUXUXUXUXUXUXUXUXUXUXUXUXUXUXUXUXUXUXUXUXUXUXUXUXUXUX",
":.-.{ q  . .} >.*X-.D.O.!.+.s.=.*.H.D.H.F.J.W.].R.UXUXUXUXUXUXUXUXUXUXUXUXUXUXUXUXUXUXUXUXUXUXUXUXUXUXUXUXUXUXUXUXUXUXUXUXUXUXUXUXUXUXUXUXUXUXUXUXUXUXUXUXUXUXUX",
"] [ / g >.;.4.%.3XqX;.&.).).Z.C.P.7XfX8X/.Y.(./.}.fXSXnX{.vX}.].W.J.KXdX).I.Y.dX].F.Z.cXW.}.].UXUXUXUXUXUXUXUXUXUXUXUXUXUXUXUXUXUXUXUXUXUXUXUXUXUXUXUXUXUXUXUXUX",
"g [ w.u.o.A *.%.(.;.T.SXC.Z.F.S.W.D.' F.nXH.U.jXI.MXc.S.U.nXU.CXL.mX=XK.h.F.fXfXbX].].I.).D.R.f.kXfXK.J.jXC.UXUXUXUXUXUXUXUXF.;.UXUXUXUXUXUXUXUXUXUXUXUXUXUXUXUX",
"o.=.D.~.l.>.Z.s.qXD.!.s.R.I./.C.fXf.C.wXK.G.(.7XgXU.F.].K.fXU.bXmXBXU.VXY.hXY.}.Y.fXxXY.H.=.'.c.g.W.8XC.A.!.J.Y.}.T.f.W.&.!.Z.*.g.D.*.O.X.` UXUXUXUXUXUXUXUXUXUX",
"+X-.T.=.;.T.G.b.A.'.C.Y.C.jXK.nX].Y.Z.cXF.BX/.kXdXmXW.K.U.S.hXdXY.fXvXI.Y.A.f.=.n.fXD.D.T.=X:.l.;.~./.>.R.s.F.R.H.T.-.>.;.f.d.;.F.-Xa.w.} g 1.} l.e.zXk.*X' +.w.",
"u.>.^.X.'.*X*.H.jXT.f.!.S._.{.}.'.Y.F.fX/.K.mXj.!.S.`.Y.J.dXU.Y.S.S.Y.S.(.I.b.C.H.R.J.f.G e.k.W.7XQ. .qX*.).[ C.>.>.X.} ;.` 7X!.d.=X7X+.G qX} d.G o.} 9.A VX7X;.",
"D.D.p.(.!.SX!.C.%.H._.W.H.H.9XDXY.W.Y.mXS.U.F.L.fXU.P.S.S.].Y.b.b.S.*.G.C.@.F.X.1X>.=.>.D.l.q.g.SXq >.x.R.f.X.W.9XD.!.-.o.1Xk.O.O.k. .F o.u.L S d.+. .X.;.X.F X.",
"{.M.=.g.C.K.qXI.g.I.@.D.C.n.Y.'.Y.L.fX=.L.Y.S.}.[.{.>Xc.A.P.Z.T.b.D.K.s.=X .a.9.` ' =X7.-.=.9.s.i.y [ t.!.+.k.*.&.&.T.>.P H.;.} O.O.d.9.' t.7.6.g.f Z X.>.6.6.x.",
"n.&.#.T.n.Z.&.*.8XF.>.f.b.=.(.A.Z.Y.Y.H.].'.S.nXf.'.:.m.b.n.L.%.w.F.b.;.R.>XO.G G } 6XD o.;.X.D.:.u.6Xt.FXs.X.%.X.] k.[ v.s.!.u.;.X.] ' X.o.K G u.u X.&. .k.g R.",
"=.R w.8.*.*.n.p |.*.@.D.:.=.H.n._.S.D.[.S.b.).R./.=.%.E.w.=.S.M.~.Y b.b.C.X.8.G -.o.!.[ s._.A F.=XO.e.&.m.%.&.>.F.e.6Xt.(.T.+. .&.-.&.A ` [ K =XO.6.wXd.:.' X.d.",
"T.Z %.[ *.M.*.T.[ | [ @.lX:.1XM.>.C.H.*.6X>.|.!.cXD.*.H.&.n.3XH.I.m.=.'.J.;.NXf.] -.>.:.>.~.f.G.s.[ c.6.*.o.7X8XX.G.W.D.-.;.=.&.>.&.D.' { 3XG 9.7.{ {.O.d.*.u.K.",
" .W.| *.[ -.-.' r.} ` ] o.dXz.>.^.*.@.[ S.:.MX*.s.qX$.C.&.CX-.&.MX:.=.D.*.f.nX&.&.@.-.s.f.+.gXR.h.X.z.SX&.f.K.].' ;.h.D.O.X.&.;.%.&.%.h.#.g S m Z G +.hXzXa.w.d.",
"' :.] [ [ n.` y 3.XXu.O.W.).8Xk.' f.t.-.$.W.L.t.*.1XoXg.} B./.AXt.'.%.F.K.x.T.J.>.%.X.] ;.6XzXH.].d.;.A.f.s.D.R.x.@.R.*.jXO.=.;.%.d.&.h.z.e.' ' Z 7X9.a.o.&.A ;.",
"/ A [ %.A >.pX%X>XU.qX-XW.).NX)._ ] x.M y.%.G.n.=.9Xm.s.t.9X;.FX/.cX| .X*.SX[.X.R.[ -.[  .t.a.=.~.F.6X_.b.T.F.=.f.-.~.C.7X;.d.f.-.(.d.H o.;.(.3.a X.y.kX' ` ` ;.",
"} @.{  .w.4.%.P G 5XMXqX5XC.Q.VXr.[ e.>.f.j W.D.n.#.;.' G.C./.R.Q.Y.u.] R.>X8XX.z.D.u.l.' e.s.F.D.a.s.T.G.f.=.M.'.S.'.NX{.+.~.D.-.' j %.gXv.J.x.G FXe.+.' e.G e.",
"-.!.w.:.M.%X' _...H.s.:.X.!.6XL ^.A 1X2XF OX'.C.6X6.~.Q.X.|.).S.3XP.x.H.x.GXv.[ @.l.3.f.-.A X.d.*.].R.&.>.{.*.f.f.D.'.Q.b.d.z.f.&.T.X. .6X} 7X} x.wXD.`  .%.w.' ",
"-.t.T.t.#X*Xx.P.H._.b.T.D.>.;.T.k.FXw.:.l.:X).$.w.-.kXSXX.Z.S.S.K W.U.nXlXjX8XG.I.| 6XD.l.1.f.d.fXgXZ.=.t.E.l.J.H.{.W.3X'.;.F.>.X. .[ G jXl X.f.z.f.i.s.d.;.w.[ ",
";.M.0XR.] oXn.D.b.b.b.(.S.k.P.^.qXF {.t.6X_.(.wXz.S.i z.D.].*.R.H R.*.x.s.vXdXY.Y.H.8X'.X.!.c.!.C.h.Y.>.2X&.H.m.C.>.=.D.G.s.D.G.e.o./.u R.+.).&.g.@.!.&.).u. .>.",
"&.w.R.=.e.[ >.>.D.T._.kX_.lXE.G. .E.6X~.B.kXPXkX8XjXu l.Q.F.S.8.{.eXT.7Xg.9X'.}.n.%.gXH.' x.NXFXlXK.&.F.M.%.C._.:.T.E.n.%.W.C.*...A i.9X6.F d.9.%.l.8.XX=X<XFXq ",
">.%.Q.$.d.] t.%.:.4X9Xf.*.A.b.9XW._.{.9X(.G.].xXK.>.] H.x.7X6X=.jXz 8XY.l.I.H.}.E.m.*.[ ' ].F.&.I.C.%.W.:.E.%.*.NXu.N.H.>.W.>.%.e.l.F GX!.1.%.X.w.[ -.V ;.1.` -X",
"m.>.C.=.;.] :.>.n.*.%.+.-._.#XA.b._.W.W.'.I.].K.>XL.9. .T.l.'.GX9X'.&.H.].z.5X9X;.=.|.O.=.jXZ.>.C.*.] t.>.=.] ^.8.t.s.m.%.-.l.<X:.O.qX` 0.a.>.[ 6.;.&.k.!.G f G ",
"C.:.6.m.#X#.D.t. .4.~.:.>.0X*.b.b.=.m.*.*.b.Y.LXLX].>.tXA /.fXA.P.`./.R.C.8XMXl.X.=.=.w.^.R.C.&.=.=.:.R.` R.} *./ !.HX[ x.:.!.-.z z.=XF 2Xl.u.j o.-X!.l.o.} } e.",
"] :.-.n.t.] R.k.Q.<X#.;.r.B.>.$.*.:._.LXLXU.cXiXl.L.6X[.R.{.H.NXG.b.s.e.J.S.D.>.R.^.~.6./...W.H.S.*.rXR. .1X` u.-X!.l.=.l.6XF  .8.e.} !.z.b.s.z 1XwX@.O.e.*X>.o.",
"' j.o.2X,.=.V.w.y.qX@X| #Xp.@.`.G.$.HXKX`.'.}.H.T.x.W.S.~.=.%.s.C.(.}.-.8XI.Y.A.j [.u l...a.C.[ I.-.z.Q.O.g 1.a.=XO.qXAXt. .<.9Xu.u.wXt.>.@.9Xz.<XqXe.z.2Xi.o.;.",
"` 0.t.n.O.X.$.G.b @XyX' ' *.[ *Xh.B.=.W.f.|.hX{.rXn.&.H.9X] ` H.W.>.;.R.b.n.F.D.t.P.%.C.f.*.%.b.D.S.+XFX%.jX<XXX>Xz.SXX.:.1.l.' r 2Xz.F :.#.t.T.f.4Xo.F Q.A t.o.",
"] A f *.| @.$./ b :Xw.0X-.>.:.*.{.>.-.) /.I.).' /.,.] o.SXs.G [.J.;.!.S._.S.|.D.A.}.;.t.&.&.D.6X@.A h 9X=.b.4XQ.iX*X} t.i.] [ B.u.o.w.6.t.} / >.%.:.` ;.u.1Xi.} ",
"] j.o.] w / g f w z f 2XM.rXl.@.8XA.i.f.W.S.t.l.g.(.8Xt.c.S.j cX/.'.R.b.G.A.s._.b.b.=.D.%.*.D.C.f.` 4X<X=.y.i.i.qX8.w.6.#.-.>.} lX%.-.$.x -.w.t.%.i.2X-.wXX.*X[ ",
" .:.D / L A u 5.t.7.L >. .u.e.t.%.M.n.' }.C.S pXD.U.|.0X^.L.<.fX:.f.O./ :.S.%.G.X.*.&.m.C.%.-.+.T.w.<Xi.@.p.w.2XqXiX3X-X-Xi.-.{ ` -.#.;. .%.-.t.-.| >.X.u.#.>.Q.",
"[ f e d p y.f g p D { o.0XuXQ.| t.*.*.>.U.b.GXPXb.n.4X+XF.F.g ).=.D.>.` ..*.T.%.*.A.-.*.%.%.=.` qX{ %.t.:.e.t.5.SXiXI 5XZ w.' l A ` / ` ] ,.` `  .6.` +X-.t.g A ",
"L g 8.k e - w ; r '  .p.j j -.}  .-.n.^.D.=Xz e.*.~.%XT.MX%.%.e.-.t.z.G.~.] g FX>.O.!.wXR.e.[ ] nX' ` [ :.e.w.u.lXx b 6.4.oX0 1.4X} | ] y.@.t.1.,.1.] -Xk 1.g 2.",
"P u.1.d e 7 w z y. .{ - m d | w  . .t.oX6X%X/.[ oX$X6X=.} @.w.@.[ X.`.` i &.G m q.;.$.{ A j.wXV.e.` F ' <XT.e.#.` 1.r <.h 8.r z p f A f w.M OXp I { / 2X>.n 3.7 ",
"F 0 { w q , x u.g l ,._ r lXf _ w [ G.u.W.4X=..X0.$XH.D.W.s.l.-.l.e.L.` F -.-Xl bX-.6.s yXXX$.m.X.` >.Q.XX} f D  .| D ;Xk t M ` N q m $Xm ,.OX2.g +XiXSXr uXK .X",
"z b q 0 , f x 2.t qX0 0.q } $.,.^.t.[ } j <X&.k q.6.[ e.D.X.S.D.&.NX] +X8.@.w.< C.6.< } -X/ i M.!.) } @XA F  .j o.r 1.@XiX#Xz 0X- :X# n :XI > > uX#Xf :X4.#X3.b ",
"I $.g q .X0 M j C  .} / uX{ ( 1.^.w.-.w.x.&Xs.OX[ ..!.[ @.>.:.%.C.JX6.=X>X6.~.F } p v e.*.[ @. .r.' ` { w i 1.` 9.,.U } oX3..X1.iXoX3.> -XU > 0 l d p @X{ 3.1.2.",
"I | l e | 1.b k , x ` u y l h %.( f F 6.g %Xw.$Xg +.' n.n.W.#.5Xt.).;.D D L -.} Q.g m #.{ ( ` o.6.] j h j - d <.F p S 5._ S H y.*X@XL :Xk .X% p 2 q L e p._  X0X",
"i / 9 r x 4.* e % $.@X#XI ,.5._ h k 0 g O.XXi ;Xg A C.%.MXt.r j D.r.D.e.H CXE.3.e Z * %.<.j | w %X| i.g p p z - e z J 9. .q A @.<.y R K XX<.D M N 6 j.p ] }  X X",
",.7.d - uXf a  X* m :.< m t V.g k y.h g -.n q 1.i i.w.X. .T.j t.X.:.S (.).9.D i c :X3X$XIX2X0Xw.q ] m M <.n > S y ,.S j z w b %.} 4.{ m 6.K $ p.8 N H #X} S *Xy.",
"; p f b d % % yXi d ^.; . w #.M w q.{ u i m u m j g t.} *.'  .9X....DX' k.F s XX1 = 1 , J 5.k 0XHXu.g b y > i D #X Xw ,.( 0 p } x j 0 ,.A : :Xs g CXg Z e.@X .+X",
"*X/ L &  X$ 6 sX| z :.3 V #X| #.q x n |.u m - 3. .L A :.[ 1.I :.z F.^ 6.OX> a 3 $ 2.F c 1.XXL D j i w y <.XXF w ; $Xw m M S S , 7. .D :X* 8 ;X Xe J L G g  .p.*X",
"#.| $ - ( 6 ,  X1.l q.1.$XM./ , M DXIX}.e b q I ` !.S x.5.-.r.| w.V.Q g 1 n yXb q 7 p > L 3X{ g F D y 3 L Y g D % 2 3 y 1 $ l - g [ e g FXa %Xp l M e.l.S  .' i.",
"] u e k ,.. l  X1.1Xi.t #./ { X : K  Xy 3.,.' & [ X.d J.`.' Q.o.*.5XXX$X#X% 5XR 8 ;X8 @Xe 8.; [ r.j > U >Xw ,X2 l j m V * % S = ,.9.; b , 4 .Xp L ` - u A  .z ` ",
"#.y M ` N p N f 0 q @.iX2.h 3X$ * $.SX- p u w n l.=.F b.~.Q.B.j ) j ` 4.| O -.x 3._.AXt ~.e.-X7.F t g p u P M , q e y * < u a 6 : g u N , I K 3.S 3 w f f ` M 7 ",
"w.3 k 5.0 ,.2.0.*.h $.- $.- D R 2.0XGXv w f  .7.~.X.;.j @.q 4X .#.7 = z U %XE.6.; H.AX+.(.p #.#Xf w <.G w 3.a * e 2 .X<.l U 9.m > ; L m l 3 m e X < < g ] G z < ",
"-Xp 6 h x oXk w.0X5X5X X_ x D q q 0XNXw A u :.{ Q.T.D.<.:.y.eX,X,.& e.e.E g $X8.i.u.<Xt.b.E.} w.q L g 9.8.%XB v d p w y.L  X3 oX> > N m 0 > K @X4 Y .Xw e.{ f T ",
"R   ; x x 1.h h m z <.d n r h 8 # N }.,.1.L i.` | D.R.@XQ.t./ t uX&Xp 5.N 5X5.B.`.=.wXeXD.m l i g < +XA l 1 c . w $ w.` u , S uX0X5 W n 3 5 > e :XQ Z w } L r 8.",
"m $ n q i.z 0.$X0 _ r.#.R T j N c $ A R t.x r.U.| D.u.] #X/ $._ P 6 t B.5Xt.#XGXn.[ } lXg  Xe 2 3 n 7.o x & *   q 1 v 7 n.m 3.XXB > E 5 y   & > , O 2 0 j g e K ",
"Q.t N y p.t r p.; - 0.] 3 F ) ] K % ; . w. .*.%.` b.n.] x 5.( k SXe 6 z -.^.+XHX/ FX$X<Xe  X'.. * a U AX+ v v v i o y $ oX7 b XX4 3 T 4 I < O . G o S u  .j = - ",
"#X- .X2 k m t e qXt <.j 2 3.$.0 ] 4.u l ` z n.]  .=.b.1..X_ 0XB.u.x  Xm :.>.j  X#.g 7.g -X7.l.2.u.$ L < 3 & 3 > ` E U * m m ;X3XF 1 8 5 & Z o 5 6 1 <.R u.` , - ",
"0 2 | 9 d 2.P r 9.*X| ] R S  Xc { m M < w.] 0.4X$.%.:.d ; #Xj r 1 t.OXj t.] .Xc eXr.f *.9Xo.' T iX; ; u oXc p. .A *  XU 9.L L OX#X7.y X $ o o : O S OX. g g & u ",
"{ A / r.t 0 9.>Xz x M y ; z k ; j 2.2 u | j $.| p.:.>.0.0 ` f 0.g 2.j [ O.9Xi.e X.@.{ h !.<X% T $X:.# 2 uX% #.2 p # e.9.w.g 1 v 3 m 3   V T yX  + E n 1 D u , % ",
"f h ( j t -  .i y.f - 3.+X( q B r.0XN i ( w ~./ 5X:.b.| &Xu.w.y.6Xl A / q L $XwX .| | j z.j 3X1X,.&.S a iXp 2.& .X .9.R ,X5 N y 3.3 R O E % S H O L 7 1 D , ,  X",
"h f h %.h - { | <.) v 5Xq f / R 5.$./ k { r j h D @.b.h ` - ` M ..q D }  .] 9Xf p.oX3XNX*X<Xy.Q._ x k R v w * K f [ Y 6.4X. X p $ : 5   4 6 @X+ T  .f O & g k C ",
"( h / ,.j w f m 0 / u  .K d L r t / ` #XD { , w j $.-.N M  X,.f f <.x 1Xi.r H.$.@.4.M.!.D S g (  XqXt aX< 0.} U u ZXD 0Xl v @X0.0 3 O T 3 @ %Xn 8 9.j , % e < 7 ",
"0 ) { r y.y.i G w c q { <.h - N k [ ( (  .( l w -.:.] #Xj # | I L e g j 0 j 7X].V.q *.O.y.5 o.N.q  Xr w.JX%.<.< f zXt.oX# n | % w L T + 9.n : 8 e L [ 0 < w D XX",
"s w d 7 D #.yXSX, - k 5.,.] I $Xb ) pXk <X( ,.l h } $.; 0 q u y 3.< - -.h -. .ZXT.A @.^.%.3 ( Q.y.7.AXt.} ; | G g OX6.lX4 1 0X#X-.m v W XXn L , n g | f <.L ,.: ",
">Xb t 7 a 5.>XQ - f f [ y } 2 ) 2.) 0.@.x 6.( } , #.o.j f g - w G 4 @.` j u $.ZX*.p.>.[ p.| D { 2.y.-.,.pXR 6. .8.<XA 4X Xq.{ 5.,.W 7 4 X E 8 &X3 v ( G 7.N A  X",
"! s N * h j ~ sXt M F.j .X$.k x z ) aX-X7.3 t <.0 | -.] 0 y Q.j .XP x =.j f ) [ [ W.$.[ -.4.{ #. X,Xo.3.N S w.3XpXt.} S 0X2.f M.w -X%XsX8 6 6 . 6 : $ 5 o &X9.j "
};
