/* XPM */
static char *result[] = {
/* columns rows colors chars-per-pixel */
"80 80 228 2 ",
"   c #2C1518",
".  c #311A1D",
"X  c #361E21",
"o  c #3C2226",
"O  c #3D2529",
"+  c #38323A",
"@  c #332C36",
"#  c #16080B",
"$  c #500E12",
"%  c #6D0F12",
"&  c #44252B",
"*  c #4E292E",
"=  c #47282D",
"-  c #542D33",
";  c #592E32",
":  c #4A3335",
">  c #5B3139",
",  c #5B3236",
"<  c #4B2C30",
"1  c #64353C",
"2  c #69363A",
"3  c #6D393E",
"4  c #623337",
"5  c #733A3E",
"6  c #4F1F24",
"7  c #50403E",
"8  c #383745",
"9  c #6B3942",
"0  c #623E44",
"q  c #733C41",
"w  c #574B4E",
"e  c #664A4D",
"r  c #675555",
"t  c #775C5C",
"y  c #76605F",
"u  c #615E64",
"i  c #6B6668",
"p  c #746C76",
"a  c #797675",
"s  c #796665",
"d  c #941618",
"f  c #A51A1E",
"g  c #B71E24",
"h  c #B22E35",
"j  c #92282C",
"k  c #D32931",
"l  c #EB2A2F",
"z  c #FC2F30",
"x  c #FB373B",
"c  c #F02C30",
"v  c #F23D41",
"b  c #8C4E51",
"n  c #A9484D",
"m  c #846B6A",
"M  c #867778",
"N  c #967972",
"B  c #987B74",
"V  c #937976",
"C  c #8A6F75",
"Z  c #FA4B4E",
"A  c #F45F62",
"S  c #9D827C",
"D  c #86817E",
"F  c #78758A",
"G  c #78738D",
"H  c #897485",
"J  c #8E7C8E",
"K  c #837EA1",
"L  c #8A8284",
"P  c #898688",
"I  c #968888",
"U  c #99948E",
"Y  c #8C8B94",
"T  c #988C97",
"R  c #999597",
"E  c #A68E8A",
"W  c #A78982",
"Q  c #B49289",
"!  c #B9968E",
"~  c #BD998F",
"^  c #A38A95",
"/  c #AB9295",
"(  c #A29C95",
")  c #A9999A",
"_  c #B79C98",
"`  c #AE8F88",
"'  c #ABA39C",
"]  c #BEA09C",
"[  c #8783A9",
"{  c #9D9BA3",
"}  c #9997AA",
"|  c #8D88B3",
" . c #938CB5",
".. c #9897BA",
"X. c #918CAC",
"o. c #A399A7",
"O. c #B99EA6",
"+. c #B49AA5",
"@. c #A49AB7",
"#. c #A5A4AC",
"$. c #A9A5A7",
"%. c #B3ACA3",
"&. c #BCA2AA",
"*. c #B9A6A5",
"=. c #BBB3AA",
"-. c #B7B0A7",
";. c #ADACB3",
":. c #A9A5B8",
">. c #BAA6B5",
",. c #B8B6B9",
"<. c #C29E93",
"1. c #CBA59A",
"2. c #C4A29C",
"3. c #D2AA9E",
"4. c #C4A4A3",
"5. c #C4A6AB",
"6. c #CDACAB",
"7. c #CAA8A6",
"8. c #D4ADA3",
"9. c #D1AFAD",
"0. c #C2B6AD",
"q. c #C2B8AE",
"w. c #DDB3A5",
"e. c #D3B1AE",
"r. c #D9B4AA",
"t. c #C7AAB0",
"y. c #CCAEB1",
"u. c #C3ADBC",
"i. c #CEB1B3",
"p. c #C5BCB3",
"a. c #C3BEBC",
"s. c #CBBBB8",
"d. c #D3B4B4",
"f. c #D8B5B3",
"g. c #DBB9B5",
"h. c #DDBBBA",
"j. c #D4BAB5",
"k. c #E4B8AD",
"l. c #EBBAAF",
"z. c #E2B6A9",
"x. c #E3BCB5",
"c. c #EABEB3",
"v. c #E3BEBB",
"b. c #E79996",
"n. c #CAC2B9",
"m. c #D5CABE",
"M. c #D6C6BB",
"N. c #EBC0B6",
"B. c #EBC3BC",
"V. c #E6C1BD",
"C. c #F0C7BF",
"Z. c #968DC4",
"A. c #9D98C6",
"S. c #A39FCE",
"D. c #A8A7C8",
"F. c #BBB8C4",
"G. c #ABA8D5",
"H. c #B2ADDC",
"J. c #B5B8D7",
"K. c #B3ADC8",
"L. c #BBB6E4",
"P. c #C5BBC8",
"I. c #D1BECC",
"U. c #C1BBE9",
"Y. c #BCC3E1",
"T. c #BAC0DF",
"R. c #C9C6C8",
"E. c #D3CDC5",
"W. c #D6CBC6",
"Q. c #DCD1C4",
"!. c #DBD3CB",
"~. c #D7D1C8",
"^. c #CAC7D8",
"/. c #D8CBD5",
"(. c #D6D4D8",
"). c #E9C8C4",
"_. c #F1CAC2",
"`. c #E3D6CC",
"'. c #F2D2CB",
"]. c #E5DBD0",
"[. c #EADED3",
"{. c #E6DADA",
"}. c #F5DAD3",
"|. c #EEE4DA",
" X c #EBE1D7",
".X c #F2E6DC",
"XX c #F4E9DE",
"oX c #FAE4DC",
"OX c #C3CAE5",
"+X c #C7C5EA",
"@X c #CCD2EA",
"#X c #CDD0E4",
"$X c #D1D6ED",
"%X c #D8D8E7",
"&X c #CDC9F3",
"*X c #D9DFF2",
"=X c #DCDDFC",
"-X c #D5D6F6",
";X c #D2CEE7",
":X c #E6DBE8",
">X c #EADFE9",
",X c #DFE4F9",
"<X c #DDE2F4",
"1X c #DCE0EF",
"2X c #E5E4EB",
"3X c #E9E6E5",
"4X c #F5EBE1",
"5X c #F9EDE4",
"6X c #F2ECEB",
"7X c #F8E7E9",
"8X c #FBF1E6",
"9X c #FDF5EA",
"0X c #FEFAEE",
"qX c #F6F1EE",
"wX c #EAEBF3",
"eX c #E5EAFC",
"rX c #EBEEFC",
"tX c #E2E5F6",
"yX c #EEF2FD",
"uX c #F3F2F3",
"iX c #FAF5F4",
"pX c #FEFCF3",
"aX c #F2F5FD",
"sX c #F6F8FE",
"dX c #FDFDFC",
"fX c #F9F6F9",
"gX c #F1EFF3",
"hX c None",
/* pixels */
"hXhXhXhXhXhXhXhXhXhXhXhXhXhXhXhXhXhXhXhXhXhXhXhXhXhXhXhXhXhXhXhX,.#.hXhXhXhXhXhXhXhXhXhXhXhXhXhXhXhXhXhXhXhXhXhXhXhXhXhXhXhXhXhXhXhXhXhXhXhXhXhXhXhXhXhXhXhXhXhX",
"hXhXhXhXhXhXhXhXhXhXhXhXhXhXhXhXhXhXhXhXhXhXD.S.D.S.S.D.A.A...X.F J.m.hXhXhXhXhXhXhXhXhXhXhXhXhXhXhXhXhXhXhXhXhXhXhXhXhXhXhXhXhXhXhXhXhXhXhXhXhXhXhXhXhXhXhXhXhX",
"hXhXhXhXhXhXhXhXhXhXhXhXhXhXhXhXhXhXhXhXhXK.{ :.#.^.H #.R.} Y :.K.~.hXhXhXhXhXhXhXhXhXhXhXhXhXhXhXhXhXhXhXhXhXhXhXhXhXhXhXhXhXhXhXhXhXhXhXhXhXhXhXhXhXhXhXhXhXhX",
"hXhXhXhXhXhXhXhXhXhXhXhXhXhXhXhXhXhXhXhXK.,.;.R.R #.F.^.P $.$XD.~.hXhXhXhXhXhXhXhXhXhXhXhXhXhXhXhXhXhXhXhXhXhXhXhXhXhXhXhXhXhXhXhXhXhXhXhXhXhXhXhXhXhXhXhXhXhXhX",
"hXhXhXhXhXhXhXhXhXhXhXhXhXhXhXhXhXhXhX;.^.R { ;.;.,.R #.#.;...!.hXhXhXhXhXhXhXhXhXhXhXhXhXhXhXhXhXhXhXhXhXhXhXhXhXhXhXhXhXhXhXhXhXhXhXhXhXhXhXhXhXhXhXhXhXhXhXhX",
"hXhXhXhXhXhXhXhXhXhXhXhXhXhXhXhXhXhXF.#X$.,.(.{ Y ,.R.{ Y | ~.hXhXhXhXhXhXhXhXhXhXhXhXhXhXhXhXhXhXhXhXhXhXhXhXhXhXhXhXhXhXhXhXhXhXhXhXhXhXhXhXhXhXhXhXhXhXhXhXhX",
"hXhXhXhXhXhXhXhXhXhXhXhXhXhXhXhXhX} #X;.,.{ #.;.*XY { R.K %Xn.hXhXhXhXhXhXhXhXhXhXhXhXhXhXhXhXhXhXhXhXhXhXhXhXhXhXhXhXhXhXhXhXhXhXhXhXhXhXhXhXhXhXhXhXhXhXhXhXhX",
"hXhXhXhXhXhXhXhXhXhXhXhXhXhXhXhX#.^.R R ,.;.,.{ ;.;.,.[ %X{ hXhXhXhXhXhXhXhXhXhXhXhXhXhXhXhXhXhXhXhXhXhXhXhXhXhXhXhXhXhXhXhXhXhXhXhXhXhXhXhXhXhXhXhXhXhXhXhXhXhX",
"hXhXhXhXhXhXhXhXhXhXhXhXhXhXhXhX#X;.,.^.P R F.rXY R R.^.n.hXhXhXhXhXhXhXhXhXhXhXhXhXhXhXhXhXhXhXhXhXhXhXhXhXhXhXhXhXhXhXhXhXhXhXhXhXhXhXhXhXhXhXhXhXhXhXhXhXhXhX",
"hXhXhXhXhXhXhXhXhXhXhXhXhXhXhX^.{ R ;.,.#.R.R #.#.F.G.E.hXhXhXhXhXhXhXhXhXhXhXhXhXhXhXhXdXsXsXfX(.hXhXhXhXhXhXhXhXhXhXhXhXhXhXhXhXhXhXhXhXhXhXhXhXhXhXhXhXhXhXhX",
"hXhXhXhXhXhXhXhXhXhXhXhXhXhXJ.R ;.1XF.P #.R.R.Y { ..W.hXhXhXhXhXhXhXhXhXhXhXhXhXdXfXiX:X/././.%XwXaX3XhXhXhXhXhXhXhXhXhXhXhXhXhXhXhXhXhXhXhXhXhXhXhXhXhXhXhXhXhX",
"hXhXhXhXhXhXhXhXhXhXhXhXhXK.P.#.R { F.R.#.R ;.:.[ (.hXhXhXhXhXhXhXhXhXhXhXhXdXdX7XI.7.2.2.4.7.t.I.*XtXhXhXhXhXhXhXhXhXhXhXhXhXhXhXhXhXhXhXhXhXhXhXhXhXhXhXhXhXhX",
"hXhXhXhXhXhXhXhXhXhXhXhX..F.#.$.<X{ P #.(.;.H } (.=.hXhXhXhXhXhXhXhXhXhXuXfX6Xf.7.2.2.2.&.&.5.5.9.;X:XhXhXhXhXhXhXhXhXhXhXhXhXhXhXhXhXhXhXhXhXhXhXhXhXhXhXhXhXhX",
"hXhXhXhXhXhXhXhXhXhXhX:.(.(.F.Y #.R.%XP } ..D.^.R.hXhXhXhXhXhXhXhXhXhXdX7XW.7.4.2.4.4.4.5.5.&.>.^.%X3XhXhXhXhXhXhXhXhXhXhXhXhXhXhXhXhX3X3XfXuXuX3XhXhXhXhXhXhXhX",
"hXhXhXhXhXhXhXhXhXhXhXJ.A.@.A.D.,.p 8 + @ + ,.hXhXhXhXhX;.a.hXhXhXhXdX6Xd.1.1.7.5.5.7.4.&.&.>.I.dX!.hXhXhXhXhXhXhXhXhXhXhXhXhXdXiXiXuXgXwXwXwXtXwX:XwXsXhXhXhXhX",
"hXhXhXhXhXhXhXhXhXhXhX8 + + hXhXA h hXhXhXhXhXhXhX*.(.6X7X7X[.i.hXdX6Xd.6.7.7.5.5.4.&.O.O.I.fXW.%.hXhXhXhXhXhXhXhXhXhXsXpXqX7X.X{.`.).h.h.h.g.P.W./.%X,X,XgXhXhX",
"hXhXhXhXhXhXhXhXhXhXhXhXhXhXhXZ k hXhXhXhXhXhXhXhX;X>X/ % d $ }.] sX/.y.&.P.P.a.a.u.F.^.wXa.%.P hXhXhXhXhXhXhXhX^.iXpX7X7X'.v.v.x.v.h.h.j.f.d.f.s.d.d./.%X=XfXhX",
"hXhXhXhXhXhXhXhXhXhXhXhXhXhXn Z hXhXhXhXhXhXhXhX@.^.:X% n @ d 2 z.F.^.;X#X#X^.(.#X#X(.(.~.(.R.,.hXhXhXhXhXhXhXdXpX5X}.C.B.N.N.x.x.v.v.h.g.g.g.f.i.d.i.s./.:X<XhX",
"hXhXhXhXhXhXhXhXhXhXhXhXhXhXA R.hXhXhXhXhXhXhXhXH I _ 7.6.k.w.7.! ^.;X%X*X%X%X*X2X2X3X2X3X%X(.!.W.R.hXR.>X>X5X`.'.N.l.l.c.N.N.B.c.V.v.v.h.h.j.j.y.9.d.d./.*XtXhX",
"hXhXhXhXhXhXhXhXhXhXhXhXhXZ k hXhXhXhXhXhXhXhXhXp M B E ` ! ! I %X$X*X*XtXwXwXwXwXgXuXiX6X3X X~.p.>.^.:XP M iXqXoXw.l.l.l.N.B.B.v.).v.v.v.h.g.d.y.y.5.P./.=XsXhX",
"hXhXhXhXhXhXhXhXhXhXhXhXh v hXhXhXhXhXhXhXhXhXhXhXhXr t y +.#X*X*X<XtXwXwXuXaXaXfXyXfXuXpXqX3X(.;.+.R.% d $ $ 9X8X_.c.l.l.c.B.N.).v.v.v.h.g.g.d.9.5.5.P.-X<XpXhX",
"hXhXhXhXhXhXhXhXhXhXhXn Z n hXhXhXhXhXhXhXhXhXhXhX,.@.+.O.>.5.t.y.y.d.h.I./.{.7XiXdXdXdXfXpXqX3XP.H _ b.# # % M.oXh.k.c.c.c.B.B.B.B.v.v.h.f.9.5.5.i./.-X=XfXhXhX",
"hXhXhXhXhXhXhXhXhXhXhXz l hXhXhXhXhXhXhXhXhXhXhXL V m i i u i t C I / O.8.9.x.c.B.B.B._.5X0XpX0X|.i H I ! <.3.g.r.~ c.l.k.z.x.x.x.v.x.x.h.h.h.W./.:X=XeX3XhXhXhX",
"hXhXhXhXhXhXhXhXhXhXh x hXhXhXhXhXhXhXhXhXhXhXa w @.U.&X=X=XsX{.o     . o : w e m Q 1.r.z.c.B.M.XXXXM y C N B B m _.'.'.}.7X7X9XiXiXiXfXdXdXsXdXaXaXgXhXhXhXhXhX",
"hXhXhXhXhXhXhXhXhXhXx l hXhXhXhXhXhXhXhXhXhXi r O U.&X-X=XsXpX=.. .   .               : w t W 1.w.k.k.Q.' L ' m.W.dXpXdXdXdXpXfXiXsXfXdXdX3XP.hXhXhXhXhXhXhXhXhX",
"hXhXhXhXhXhXhXhXhXc x hXhXhXhXhXhXhXhXhXhXhXr o L.+X-X=XrXiX{.. . . . . . . . . . .     J.%X,.& w y ! 3.r.p.n.W.~.$.hXhXhXhXhXhXhXhXhXhXhXhXhXhXhXhXhXhXhXhXhXhX",
"hXhXhXhXhXhXhXhXh x l hXhXhXhXhXhXhXhXhXhXP t   w F G Y ( ( X X X . . . . . . . . . . . D.dXdXfX6X Xn.7 y 2.8.Q.~.a.hXhXhXhXhXhXhXhXhXhXhXhXhXhXhXhXhXhXhXhXhXhX",
"hXhXhXhXhXhXhXhXv z b hXhXhXhXhXhXhXhXhXhXP r X X o O & X & & o o o o o o . . . . . .   R aXdXdXdXdXdX8X|.: y 1.Q.R.hXhXhXhXhXhXhXhXhXhXhXhXhXhXhXhXhXhXhXhXhXhX",
"hXhXhXhXhXhXhXh x c hXhXhXhXhXhXhXhXhXhXhXU : & O @ - * * * * & & & & & & o . o X . . .   O I a.6XdXpXpX*.o . e 1.W.hXhXhXhXhXhXhXhXhXhXhXhXhXhXhXhXhXhXhXhXhXhX",
"hXhXhXhXhXhXhXz x d hXhXhXhXhXhXhXhXhXhXhX~ - * = - - > 4 ; ; ; - - * * = * & o o o . . o . . . . O r : & & o X y ' hXhXhXhXhXhXhXhXhXhXhXhXhXhXhXhXhXhXhXhXhXhX",
"hXhXhXhXhXhXh x l hXhXhXhXhXhXhXhXhXhXhXhX1.> - - > 9 2 2 2 1 2 , > > > ; - * * & & O O o o o o o o O * * * * o r ! hXhXhXhXhXhXhXhXhXhXhXhXhXhXhXhXhXhXhXhXhXhX",
"hXhXhXhXhXhXc z k hXhXhXhXhXhXhXhXhXhXhXd.8.9 > > 0 2 9 q 2 b I I b 0 1 4 , - - * - * * & & = * * * ; ; ; ; * * r Q hXhXhXhXhXhXhXhXhXhXhXhXhXhXhXhXhXhXhXhXhXhX",
"hXhXhXhXhXk z z n hXhXhXhXhXhXhXhXhXhXhXv.Q 9 > > 1 e &.t.i.6.e.e.e.f.x.V.1.2 > > , > ; - - - > > - 1 4 4 4 4 - r ~ hXhXhXhXhXhXhXhXhXhXhXhXhXhXhXhXhXhXhXhXhXhX",
"hXhXhXhXhXl z k hXhXhXhXhXhXhXhXhXhXhXhXC.q 9 - e +.*.2.5.7.9.i.e.e.d.9.r.r.x.k.1 1 2 1 1 1 1 1 > > 4 9 3 2 2 > H 7.hXhXhXhXhXhXhXhXhXhXhXhXhXhXhXhXhXhXhXhXhXhX",
"hXhXR.D.sXfXdX3X=.hXhXhXhXhXhXhXhXhXhX) z.2 0 / / &.,.^.(.3X2X6X6X|.{.).).g.r.z.c.b 3 3 9 9 9 1 4 0 3 q 5 3 2 > / &.hXhXhXhXhXhXhXhXhXhXhXhXhXhXhXhXhXhXhXhXhXhX",
"hX^.(.V n ;.@XyXdXqX~.hXhXhXhXhXhXhXhX+.Q t / { P.%X*X,XtXyXaXsXsXdXdXdXiX7X'.f.z.l.<.e 9 9 9 9 9 9 q q 3 q 2 ; t.hXhXhXhXhXhXhXhXhXhXhXhXhXhXhXhXhXhXhXhXhXhXhX",
"hXuXp.b c x E Y.rXdXuXE.hXhXhXhXhXhXhXI M ^ ,.^.#X$X*X,XeXyXaXsXdXdXdXdXdXdXdXiX'.w.z.w.9 9 9 9 9 9 q q q q 3 C g.hXhXhXhXhXhXhXhXhXhXhXhXhXhXhXhXhXhXhXhXhXhXhX",
"hX^.p.d x x b Y.@XdXdXiX(.hXhXhXhXhXH H { J.L.OX@X$X*X,XeXyXsXsXdXdXdXdXdXdXpXdXpX4Xx.w.w.3 9 9 9 q q q 5 5 1 O.d.hXhXhXhXhXhXhXhXhXhXhXhXhXhXhXhXhXhXhXhXhXhXhX",
"hXR./ g Z z >.T.OXrXdXdXdX4X,.hXhXhXH  .K.J.Y.Y.@X$X*X,XeXyXaXsXdXdXdXdXdXdXdXpXpXpX8XC.8.8.9 9 9 q 5 q 5 q e h.hXhXhXhXhXhXhXhXhXhXhXhXhXhXhXhXhXhXhXhXhXhXhXhX",
"hXhX' g l f ..H.Y.,XsXdXdXdXqXn.hXhXhX| A.G.Y.@X@X$X1X,XeXyXsXdXdXdXdXdXdXpXdXdX0X9XqX5X`.w.3.4 3 q q 5 5 3 O.c.hXhXhXhXhXhXhXhXhXhXhXhXhXhXhXhXhXhXhXhXhXhXhXhX",
"hXhXj c z d [ S.T.@X,XsXdXdXdXwXR.Y hXhX .D.J.OX#X@X1X,XeXyXsXsXdXdXdXdXpXdXdX0X9X9X4XXX.XC.8.1.4 5 5 2 4 C k.hXhXhXhXhXhXhXhXhXhXhXhXhXhXhXhXhXhXhXhXhXhXhXhXhX",
"hXhXf l x h hX[ D.Y.@XeXyXsXdXdXwXR.R R | A.J.Y.#X$X*X,XeXaXsXsXdXdXdXdXpXiX0X8X8XXX X].!.!.n.~ Q ; ; ; e 2.*.hXhXhXhXhXhXhXhXhXhXhXhXhXhXhXhXhXhXhXhXhXhXhXhXhX",
"hXhXhX: hXhXhXhX| :.J.#X,XyXsXdXsXtXP.}  .A.J.Y.@X$X1X<XyXyXsXsXdXdXfXdXiX9X5X4X|.[.~.p.%.%.%.' ` Q O M ! I hXhXhXhXhXhXhXhXhXhXhXhXhXhXhXhXhXhXhXhXhXhXhXhXhXhX",
"hXhXhXhXhXhXhXhXhXK  .J.OX1XrXsXsX,X#XA.S.L.Y.Y.@X@X,XeXyXyXsXdXdXdXpX0XiX4X6X4X.X.X X].E.a.' a i e y p hXhXhXhXhXhXhXhXhXhXhXhXhXhXhXhXhXhXhXhXhXhXhXhXhXhXhXhX",
"hXhXhXhXhXhXhXhXhXhXG ..J.Y.$X,XeX=X+XZ.L.&X&X=X,XeXrXsXdXdXdXdXdXdXdXdXdXdXdXpXpXpX0X9X|.n.I r p i hXhXhXhXhXhXhXhXhXhXhXhXhXhXhXhXhXhXhXhXhXhXhXhXhXhXhXhXhXhX",
"hXhXhXhXhXhXhXhXhXhXhXK ..G.Y.$X$XY.H.H.U.&X-X=XtXrXyXdXdXdXdXdXdXdXdXdXdXdXdXdXdXdXpXpX9X|.!.~.m.a.=.-.' ( ' -.$.{ U a ,.T Y #.;.;.#.a.hXhXhXhXhXhXhXhXhXhXhXhX",
"hXhXhXhXhXhXhXhXhXhXhXhXp ..D.L.L.H.A.L.&X&X=X,XeXyXaXdXdXdXdXdXdXdXdXdXdXdXdXdXdXdXdXpX0X0X0X0X9X8X4X XQ.n.q.m.0XiXpXsXfXfXdXdXdXdXdXpX0XR.hXhXhXhXhXhXhXhXhXhX",
"hXhXhXhXhXhXhXhXhXhXhXhXhXG ..S.G.A.H.L.&X-X,X,XeXrXaXsXdXdXdXdXdXdXdXdXdXdXdXdXdXdXdXpXpXpXpX0X0X0X9XXX[.Q.n.=.pXdXdXdXdXdXdXdXdXdXdXy W ].hXhXhXhXhXhXhXhXhXhX",
"hXhXhXhXhXhXhXhXhXhXhXhXhXhX[ ..A.Z.H.U.-X=XtXeXtXwXwXgXfXdXdXdXdXdXdXdXdXdXdXdXdXdXdXpXdXpXpXpX0X0X9X4X XQ.p.' 8XpXdXpXdXdXdXdXdXdXpXiXi U R.hXhXhXhXhXhXhXhXhX",
"hXhXhXhXhXhXhXhXhXhXhXhXhXhXhX[ Z.Z.L.U.-X-X=X;X/././.{.>XgXfXdXdXdXdXdXdXdXdXpXdXpXdXdXpXpX0XpX0X0X9XXXQ.n.' %.n.n.=.-.%.%.-.n.(.qX9X9X|.R hXhXhXhXhXhXhXhXhXhX",
"hXhXhXhXhXhXhXhXhXhXhXhXhXhXhXK Z.S.U.&X=X;XI.t.i.j.h.x.).).}.iXdXdXdXdXdXdXdXdXdXdXdXdXdXpX0X0X9XXX Xm.-.U a P a i hXhXhXhXhXhXhXhXhX$.hXhXhXhXhXhXhXhXhXhXhXhX",
"hXhXhXhXhXhXhXhXhXhXhXhXhXhXhXhXZ.G.U.-X;Xu.t.t.d.d.g.v.v.B.).}.7XdXdXdXdXdXdXdXdXpXpXpXpX0X8XXX XQ.q.( L hXhXhXhXhXhXhXhXhXhXhXhXhXhXhXhXhXhXhXhXhXhXhXhXhXhXhX",
"hXhXhXhXhXhXhXhXhXhXhXhXhXhXhXhXZ.H.+X+Xu.5.t.y.d.d.x.v.v.c.)._.}.9XdXdXdXdXdXdXdXdXpXpX0X8X X`.p.( I hXhXhXhXhXhXhXhXhXhXhXhXhXhXhXhXhXhXhXhXhXhXhXhXhXhXhXhXhX",
"hXhXhXhXhXhXhXhXhXhXhXhXhXhXhXT S.L.I.>.&.5.y.y.e.I.I.v.V.B.B.)._.7X0XdXdXdXdXdXpXpXpX0X9XXX].n.L hXhXhXhXhXhXhXhXhXhXhXhXhXhXhXhXhXhXhXhXhXhXhXhXhXhXhXhXhXhXhX",
"hXhXhXhXhXhXhXhXhXhXhXhXhXhXhX .S.L.>.&.&.5.y.y.d.h.h.v.V.B.B.B._.'.5XpXdXdXpXdXpXpX0X0X9X.X].m.hXhXhXhXhXhXhXhXhXhXhXhXhXhXhXhXhXhXhXhXhXhXhXhXhXhXhXhXhXhXhXhX",
"hXhXhXhXhXhXhXhXhXhXhXhXhXhXhXZ.G.G.O.O.&.t.t.y.f.x.h.v.V.).B.B.B._.oX9XpXdXdXpXpX0XiX0X5XXX].m.-.hXhXhXhXhXhXhXhXhXhXhXhXhXhXhXhXhXhXhXhXhXhXhXhXhXhXhXhXhXhXhX",
"hXhXhXhXhXhXhXhXhXhXhXhXhXhXhXZ.S.^ +.O.&.t.y.y.f.h.h.v.V.B.B.B.B.C.'.oXiXpXdXpXpXpX0X9X5XXX[.`.n.$.hXhXhXhXhXhXhXhXhXhXhXhXhXhXhXhXhXhXhXhXhXhXhXhXhXhXhXhXhXhX",
"hXhXhXhXhXhXhXhXhXhXhXhXhXhXhXA.@.@.+.O.&.5.y.d.f.h.h.v.V.v.B.B.C.C._.}.9X0XpXdXpX0X0X9X5XXX|.].Q.%.hXhXhXhXhXhXhXhXhXhXhXhXhXhXhXhXhXhXhXhXhXhXhXhXhXhXhXhXhXhX",
"hXhXhXhXhXhXhXhXhXhXhXhXhXhXhXZ.^ ^ _ O.&.5.t.9.e.g.g.v.v.v.B.B.c.C.C._.oX0XpXdXpX0X9X9X8XXX.X[.Q.=.hXhXhXhXhXhXhXhXhXhXhXhXhXhXhXhXhXhXhXhXhXhXhXhXhXhXhXhXhXhX",
"hXhXhXhXhXhXhXhXhXhXhXhXhXhXhX| J ^ / +.O.5.t.y.9.g.g.v.v.c.v.N.C.c.c._.}.9XpXdX0X0X9X8X5X4XXX.X`.q.hXhXhXhXhXhXhXhXhXhXhXhXhXhXhXhXhXhXhXhXhXhXhXhXhXhXhXhXhXhX",
"hXhXhXhXhXhXhXhXhXhXhXhXhXhXhX[ H J / +.O._ 4.6.6.d.f.g.x.x.x.x.x.c.c.N._.8X0XpXpX0X0X8X8X5X.X X`.q.hXhXhXhXhXhXhXhXhXhXhXhXhXhXhXhXhXhXhXhXhXhXhXhXhXhXhXhXhXhX",
"hXhXhXhXhXhXhXhXhXhXhXhXhXhXhX[ H J ^ / _ %.4.5.6.e.e.f.g.k.x.x.k.c.k.l._.oXpXpXiX9X0X8X5XXX|.[.Q.q.hXhXhXhXhXhXhXhXhXhXhXhXhXhXhXhXhXhXhXhXhXhXhXhXhXhXhXhXhXhX",
"hXhXhXhXhXhXhXhXhXhXhXhXhXhXhX[ H H J ^ ) _ *.4.4.6.e.e.r.r.g.k.k.z.z.z.N.}.0X0X0X0X9X8XXX.X X`.m.=.hXhXhXhXhXhXhXhXhXhXhXhXhXhXhXhXhXhXhXhXhXhXhXhXhXhXhXhXhXhX",
"hXhXhXhXhXhXhXhXhXhXhXhXhXhXhXG F H V T / ) _ _ 2.4.7.8.8.e.r.w.8.w.w.z.N.}.8XiX9X9XXXoX.X|. X!.M.U hXhXhXhXhXhXhXhXhXhXhXhXhXhXhXhXhXhXhXhXhXhXhXhXhXhXhXhXhXhX",
"hXhXhXhXhXhXhXhXhXhXhXhXhXhXhXhXG p M J ^ E / _ _ <.2.7.1.8.8.7.3.8.w.w.N.'.9X8X8X8XXXoX.X[.`.m.=.hXhXhXhXhXhXhXhXhXhXhXhXhXhXhXhXhXhXhXhXhXhXhXhXhXhXhXhXhXhXhX",
"hXhXhXhXhXhXhXhXhXhXhXhXhXhXhXhXG p p V I I W E / _ _ 2.2.4.1.1.3.3.3.3.M.].XXXX5XXX.X|.[.`.m.q.( hXhXhXhXhXhXhXhXhXhXhXhXhXhXhXhXhXhXhXhXhXhXhXhXhXhXhXhXhXhXhX",
"hXhXhXhXhXhXhXhXhXhXhXhXhXhXhXhXhXF p M M V I W E E / ! ! ! <.<.1.1.1.8.x.]..XXX.X|.[.].`.m.n.0.%.D hXhXhXhXhXhXhXhXhXhXhXhXhXhXhXhXhXhXhXhXhXhXhXhXhXhXhXhXhXhX",
"hXhXhXhXhXhXhXhXhXhXhXhXhXhXhXhXhXp F p C V N V S S W S W Q ! ~ ! <.<.3.M.`.[. X].].Q.m.m.M.M.n.%.D hXhXhXhXhXhXhXhXhXhXhXhXhXhXhXhXhXhXhXhXhXhXhXhXhXhXhXhXhXhX",
"hXhXhXhXhXhXhXhXhXhXhXhXhXhXhXhXhXhX[ p M M M M C V N B B S S Q ! Q <.7.n.m.Q.E.m.m.m.m.m.m.m.q.%.U D hXhXhXhXhXhXhXhXhXhXhXhXhXhXhXhXhXhXhXhXhXhXhXhXhXhXhXhXhX",
"hXhXhXhXhXhXhXhXhXhXhXhXhXhXhXhXhXhX[ A...a a a m a m s m C N B S S ! %.q.n.=.=.0.n.M.m.m.m.M.n.%.U R hXhXhXhXhXhXhXhXhXhXhXhXhXhXhXhXhXhXhXhXhXhXhXhXhXhXhXhXhX",
"hXhXhXhXhXhXhXhXhXhXhXhXhXhXhXhXhXhX| S.J.Y.@X@X(.(.^.U a a M D L I U U ( ( ' ' -.n.n.M.m.m.n.0.' ' %.hXhXhXhXhXhXhXhXhXhXhXhXhXhXhXhXhXhXhXhXhXhXhXhXhXhXhXhXhX",
"hXhXhXhXhXhXhXhXhXhXhXhXhXhXhXhXhXhX .H.OX,XyXsXsXaX3X{.(.n.;.R p a P U U U ( R ' %.-.n.M.n.n.%.' ' -.hXhXhXhXhXhXhXhXhXhXhXhXhXhXhXhXhXhXhXhXhXhXhXhXhXhXhXhXhX",
"hXhXhXhXhXhXhXhXhXhXhXhXhXhXhXhXhXhXX.H.$XrXdXdXdXdXdXpXXX].R.-.#.P hXi D P U U ( ' ' %.-.=.=.' ' ' ' hXhXhXhXhXhXhXhXhXhXhXhXhXhXhXhXhXhXhXhXhXhXhXhXhXhXhXhXhX",
"hXhXhXhXhXhXhXhXhXhXhXhXhXhXhXhXhXhX..L.$XeXdXdXdXdXdXpXpX8X[.E.,.U hXhXhXP p D D D U ( ( ' ' ' ' %.hXhXhXhXhXhXhXhXhXhXhXhXhXhXhXhXhXhXhXhXhXhXhXhXhXhXhXhXhXhX",
"hXhXhXhXhXhXhXhXhXhXhXhXhXhXhXhXhXhX .Y.$X2X X~.E.~.R.~.(.|.|.!.R.;.hXhXhXhXhXw i a a D I P U R ( hXhXhXhXhXhXhXhXhXhXhXhXhXhXhXhXhXhXhXhXhXhXhXhXhXhXhXhXhXhXhX",
"hXhXhXhXhXhXhXhXhXhXhXhXhXhXhXhXhXhX .T.F.=.) E S B I E -.n.E.!.E.hXhXhXhXhXhXhXu u i a D U I hXhXhXhXhXhXhXhXhXhXhXhXhXhXhXhXhXhXhXhXhXhXhXhXhXhXhXhXhXhXhXhXhX",
"hXhXhXhXhXhXhXhXhXhXhXhXhXhXhXhXhXhX .;.' V N B B B B B B E -.n.E.hXhXhXhXhXhXhXhXhXi p a hXhXhXhXhXhXhXhXhXhXhXhXhXhXhXhXhXhXhXhXhXhXhXhXhXhXhXhXhXhXhXhXhXhXhX",
"hXhXhXhXhXhXhXhXhXhXhXhXhXhXhXhXhXhXhXU ( N V N N B B B B B E -.a.hXhXhXhXhXhXhXhXhXhXhXhXhXhXhXhXhXhXhXhXhXhXhXhXhXhXhXhXhXhXhXhXhXhXhXhXhXhXhXhXhXhXhXhXhXhXhX",
"hXhXhXhXhXhXhXhXhXhXhXhXhXhXhXhXhXhXhXhXM U B N N N B B B B E %.hXhXhXhXhXhXhXhXhXhXhXhXhXhXhXhXhXhXhXhXhXhXhXhXhXhXhXhXhXhXhXhXhXhXhXhXhXhXhXhXhXhXhXhXhXhXhXhX",
"hXhXhXhXhXhXhXhXhXhXhXhXhXhXhXhXhXhXhXhXhXhXhXhXR D M L Y hXhXhXhXhXhXhXhXhXhXhXhXhXhXhXhXhXhXhXhXhXhXhXhXhXhXhXhXhXhXhXhXhXhXhXhXhXhXhXhXhXhXhXhXhXhXhXhXhXhXhX"
};
