/* XPM */
static char *result[] = {
/* columns rows colors chars-per-pixel */
"32 32 17 1 ",
"  c black",
". c #222A5C",
"X c #154C59",
"o c #1B5A5B",
"O c #266F5D",
"+ c #37446E",
"@ c #D22F1E",
"# c #800C53",
"$ c #AB1F65",
"% c #E6336A",
"& c #378B60",
"* c #FF8142",
"= c #CCAC68",
"- c #566A89",
"; c #F96B80",
": c #FFDBA5",
"> c #CCE2E1",
/* pixels */
"XXXXXXXX      X XXooXXXXOOoooXXX",
"oXXXOXo %%%;;% % oooOXoOOoooXXXO",
"XoXOXXo %%;;;%%% oooooooOoooXXOX",
"OOOXooo  %;;%:%% ooOoooOooooOXoo",
"XXOXoXo %%%%%::$$ ooOOOOoooOXoOo",
"oXOooo %%%%%:::$$$ OoO&OoooX&OOo",
"ooXOXo % %%::::$   oOO&OoOX&oOoo",
"oooOXX  %%%::::$ ooOo&OoooX&oOoo",
"ooooOoo %%%::::  OooOOoooo&OOooo",
"ooOXoOO %-%-----+ oooOooo&OoOooo",
"oooOOO %---%----- oooOoo&ooOOOoo",
"OooooX >---------- oooOoO&&OOOOO",
"oOoOoo ->>-------- Ooooo&OOooOoO",
"OoOOOo -- >>-----> Oooo&XXOOXOOO",
"&OOoOo -- ++>>--> &OOo&XXXOXoXoo",
"oOOOOO -- ++++>>+ OOO&XoXoOooooX",
"oOOOo ---  ++++++. o&OoooOooooXo",
"ooOXX -@ o ++++++# XoooooOO&&ooo",
"oooXX @@ o ++++++## OooOoOXXooOo",
"ooXoX :: o ++++++== oooOOXXoOooO",
"oXXXo ::  ++*@@##== OoooOXoXOooo",
"ooXoX   o +**  ##  OOo&OOoXXoooo",
"OXooX&ooo ** o ### oO&ooooOooooX",
"oOXo&oXo *** X ### oO&oXOOoooooo",
"ooXoOooO **@ XX ### O&OoooooooXX",
"ooOXOoOX @** OX ### &OoooooOXXXo",
"oooOXOXo @@@ XO ### oOXOooOXXXoo",
"oooXooO @@@ XXXO ### oXooXoXXXoX",
"oOXOooo @@@ XXoX ### oooOoOOXoXo",
"oXOoooo @@@ XoXO ### XoXoXOoOooo",
"OoXOooX ... oXOX      XoXOoooXXX",
"XoXXOXo ... XXoO      XXOoooXXXX"
};
