/* XPM */
static char *result[] = {
/* columns rows colors chars-per-pixel */
"32 32 13 1 ",
"  c #5E0000",
". c #252B43",
"X c #67386C",
"o c #154C59",
"O c #1B5A5B",
"+ c #266F5D",
"@ c #3A4467",
"# c #C10000",
"$ c #F77622",
"% c #378B60",
"& c #348D61",
"* c #5B6986",
"= c #8B9BB5",
/* pixels */
"ooooooooo+ooOoo+ooOOoooo++OOOooo",
"Oooo+oOo+ooOooO+OOOO+oO++OOOooo+",
"oOo+ooOO+OOoO+o+oOOOOOOO+OOOoo+o",
"+++oOOOOO+OO+%+OOOO+OOO+OOOO+oOO",
"oo+oOoOOOOO+%+OO+OOO++++OOO+oO+O",
"Oo+OOOOOOOO++oOOOOO+O+%+OOOo%++O",
"OOo+oOOOoO+OoOooO+OO++%+O+o%O+OO",
"OOO+ooOOOOOOO******+O%+OOOo%O+OO",
"OOOO+OO+OOoO********++OOOO%++OOO",
"OO+oO++oooo+********O+OOO%+O+OOO",
"OOO+++oooOOO@******@**OO%OO+++OO",
"+OOOOo&O++OO@@@@@@@@**+O+%%+++++",
"O+O+OOO%+++O@@@@@@@@**OO%++OO+O+",
"+O+++O%+++++.@$$@@@@**O%oo++o+++",
"%++O+O+++O++..$$..$$+O%ooo+oOoOO",
"O++++++O++O+O.$$$$$$+%oOoO+OOOOo",
"O+++O%+O+OOO   $$$$#%+OOO+OOOOoO",
"OO+oo%OOOOOO  ######OOOOO++%%OOO",
"OOOoo+%O+OOOO  #####+OO+O+ooOO+O",
"OOoOo%++OOOXX  #####OOO++ooO+OO+",
"OoooO%O+OOOXXX.$$@Oo+OOO+oOo+OOO",
"OOoOo+OOOOOOXX.@@@=++O%++OooOOOO",
"+oOOo%OOOOOO+X=====O+%OOOO+OOOOo",
"O+oO%OoOOO+OoooooOOO+%Oo++OOOOOO",
"OOoO+OO+OOO++ooOOOO++%+OOOOOOOoo",
"OO+o+O+oOOOOo+oooOO+%+OOOOO+oooO",
"OOO+o+oOOoOooo+oOoOoO+o+OO+oooOO",
"OOOoOO+oOoooooo+oOOo+OoOOoOoooOo",
"O+o+OOO+OOoOooOo++O+oOOO+O++oOoO",
"Oo+OOOOO+ooooOo+oo++ooOoOo+O+OOO",
"+Oo+OOoOoOOoOo+oOOO+oooOo+OOOooo",
"oOoo+oOoO+oOooO+OOOO%Ooo+OOOoooo"
};
