/* XPM */
static char *result[] = {
/* columns rows colors chars-per-pixel */
"32 32 18 1 ",
"  c black",
". c #222A5C",
"X c #154C59",
"o c #1B5A5B",
"O c #266F5D",
"+ c #37446E",
"@ c #D22F1E",
"# c #800C53",
"$ c #AB1F65",
"% c #E6336A",
"& c #378B60",
"* c #348D61",
"= c #FF8142",
"- c #CCAC68",
"; c #566A89",
": c #F96B80",
"> c #FFDBA5",
", c #CCE2E1",
/* pixels */
"XXXXXXXXX     XOXXooXXXXOOoooXXX",
"oXXXOXoX %%%::   oooOXoOOoooXXXO",
"XoXOXXo %%%:::%%% ooooooOoooXXOX",
"OOOXooo   %::%>%% oOoooOooooOXoo",
"XXOXoXoo %%%%%>>$$ oOOOOoooOXoOo",
"oXOoooo %%%%%>>>$  OoO&OoooX&OOo",
"ooXOXoo % %%>>>>$ ooOO&OoOX&oOoo",
"oooOXXo  %%%>>>>$ oOo&OoooX&oOoo",
"ooooOooO %%%>>>>  ooOOoooo&OOooo",
"ooOXoOOX %;%;;;;;+ ooOooo&OoOooo",
"oooOOOX %;;;%;;;;; ooOoo&ooOOOoo",
"OooooX* ,;;;;;;;;;; ooOoO&&OOOOO",
"oOoOooo ;,,;;;;;;;; oooo&OOooOoO",
"OoOOOo& ;; ,,;;;;;, ooo&XXOOXOOO",
"&OOoOo ;;; ++,,;;, OOo&XXXOXoXoo",
"oOOOOO ;;  ++++,,+ OO&XoXoOooooX",
"oOOOo& ;; o ++++++ o&OoooOooooXo",
"ooOXX& ;; o ++++++# oooooOO&&ooo",
"oooXX @@; o ++++++# OooOoOXXooOo",
"ooXoX >> oo ++++++- oooOOXXoOooO",
"oXXXo >> o ===@@##- OoooOXoXOooo",
"ooXoX   oo ===  ##  Oo&OOoXXoooo",
"OXooX&oooo == X ## oO&ooooOooooX",
"oOXo&oXoo === X ### O&oXOOoooooo",
"ooXoOooOo ==@ X ### O&OoooooooXX",
"ooOXOoOX @== OX ### &OoooooOXXXo",
"oooOXOXo @@@ XOX ## oOXOooOXXXoo",
"oooXooOX @@@ XXO ### oXooXoXXXoX",
"oOXOooo @@@ XXoX ### oooOoOOXoXo",
"oXOoooo @@@ XoXO ### XoXoXOoOooo",
"OoXOooX ... oXOX      XoXOoooXXX",
"XoXXOXo ... XXoO      XXOoooXXXX"
};
