/* XPM */
static char *result[] = {
/* columns rows colors chars-per-pixel */
"80 80 27 1 ",
"  c #D5BD84",
". c #D8BE86",
"X c #D9BF88",
"o c #D5C087",
"O c #D6C28A",
"+ c #D9C48D",
"@ c #DBC691",
"# c #DCCA96",
"$ c #DDCC99",
"% c #DFD09F",
"& c #E0CA97",
"* c #E1CE9C",
"= c #E3D19F",
"- c #E5D5A4",
"; c #E6D8A7",
": c #E4D7A9",
"> c #E8D7A8",
", c #E6DAAB",
"< c #E9DCAE",
"1 c #E7DCB0",
"2 c #E9DEB1",
"3 c #EAE1B6",
"4 c #ECE4BA",
"5 c #F9F5E7",
"6 c #FAF7EB",
"7 c #FBF9EE",
"8 c #FCFBF1",
/* pixels */
",,,,&2,>=>>==82+<>.&22444444<4;444<24<>-624444>444:43144<334444:4,,8,44,$<<1,;2,",
",,,,&<,2>4>==6<@<--=44424444,4-444<24<--624444$444<4-4444444444$3,<7-443$,<<2;,2",
",,,,2<2<-4>==62&2>-$24444444<4-4442<4,&-724444#444:4$3444444444$,,,8%44,$<1<2,2,",
",,,,<<<<>->==82X2--#42444444,4:444<<4<&=724444:444,4-444444:444#,,,8%44,%<1<,2,2",
"<,<>>,<2>->==82-<>-&344444:4,4>444<24<,*62244%4444::-4444414444:4,,8$44<%<2,;,2,",
"<,,,*<2,->>==8<2<>>&32444422,4-444<<4<,-62444%44444$44%$44:444444,,8$441=<<<#2,2",
",<,<&2<2>>->=62<2>-&3344244,-4:444<<42<*822144424$4,4#2-114444444,;7#441=<,<@2,2",
",,,,$<<<<>->=5222--*33442442$4$4442<4>2-824<444$4$4,4+44#4434%4444=7$441;<1<%,2,",
",:><<22<<>$>=6<22>->4244444,#,34442<4><<844>444$4$4,4-44144:344444%8$441;<,;;<<<",
",<,,<<<<<-#>=6<2<>-24244444,%-4444<<2-<<824244444443O-444444444444;8$44,11,#,<<<",
",<><<2=<<>#>=62<2*>32444444,1;44442<2*<<842<44443344<3434444444444,8$4411<,%<<<<",
",,<><<><,>#>=722,&-34242444<4;4444<<:*><842144%4$444,44%1444444444;8$44,<<<$<,$<",
",,,,<<2<>>&>=62<<$>3334%4,4,4;4444<<*<=4822:44$444$4,34#$444344444$8%432<23%,1@1",
",,,,<<<<->=>=8222$-3334$4$4,4;4444<<=<*48:<144@44444<44$%444144444O8344<1<4,11O<",
",,<,2<#<>->>=8<22#-3-14#4-4,4-44442<<<*48:2:44:44$41:44$4%14144444$74441,243,1o4",
"<,<,<<22->>>=6<22$-3#14$444,4;4444<<<<>48:2:44<24$4$<4-14%%3%44443%7444<2,441,$4",
">,,<<2<<>-$>-6<2<&-4#24*444,4,44442<<<<47;1<44;4444$34@444,:$44443484443,3,44,$4",
",,,<<<<2---,=62<2*>2244%441,4;4:44<<<<<4811,43,$44414,-4444%$4444,47444,<,-443:4",
",,,,<<<<->>>-622<*-2224$44,<4;4#442,<<3483114$;;44344@-4434%$4444,4843411,%44,%4",
"<>,,<2<<-->>>6<22--,$44$44,$4;4-44,-<<44711<44;,44$44O,4434%34444,484,4,1,-441-4",
",,,,<<&2->>>>7<22%--244$44,$4-43=4,*<<4481<3444;$4,44;444$4,44434,484%4,,4-444:4",
"*><,<<*<>->>>6<<2>-*424$44,-4,442:,:<<448333444;o4444,44%$4444414,484$4124<444%4",
"X,>,<<&<->>>=7<22--$424$44<34,434#*4<<447314444;:444%44%:$44444$4,484$41441444$4",
"X,<<<<<<>>>>=7221<>*224$44,44-434=#4,3448<<443%<,444$44O4$:4344$4:484$4,443444%4",
"O<$<2,22->>>=62<22-#424*44124*4442>4<44483<44344:443$44O4:$4:43$41464$41444444%4",
"O<<:><=2-->>=6<22:>#244*<4242#442224<24471<44$44,$4%$44 441444$$4:364:41444444%4",
"O,,,>2<2->>>=6<22<--422$$4<4,$444224444483344,44;$4%$43o4444444$4:%6444143444414",
":,,,*2+<>->>=6222,>=424$-4<4,$44422242448<<44,444;43:4$O444444444@#644443:444444",
"4,:,&<<<2-->=82<<<--332$1214:4442224424483<44,444,4,44$@444444444#%644431:444444",
"4,,,,22<2-&>>6222<--3<:$:414:4444,24424471<44,$44;4%44#%444444443%:6444:%%444444",
"4,,,,4<<2>->>8222<>>3-<*$4<4:44442244:4483344,,4444$44$:444343444:46441%:#444444",
"4,,,,42<<<->>62,2,--3=2>$4<2-43142244:44711334,4443:443344414144444644%34%4444:4",
"4>1>>44122::>7<<22--3#21,4,4-4$$42<44>247<34;4,343%34444444,4:44434644#44%4444%4",
"4<:<>443<22X>7$<22->3<1434,4;4$<42<44=447<<4;4;%44-34444444:4%444%4643#44,4444%4",
"44>112442<<$>7&<<2>-33:434,4-4344<244%446324;4,,44344444444:4:444%464%#443444434",
"4$21>3344<<$>7&22<--33<443=4,4444<<44%4463<4;4,,44444:44444:4,444#47::%444444434",
"4$4X1324422*>7=2<<->13,44,$4;44,4<244%4>6324,4,,$4444$44444%41444%47%41444444444",
"4$4X>23$422>>7=222->$3,34,14-44,42<44%2-6224>44,$4;43$44434343444448444444444444",
"4:4$<32344<->7=2*<--$3,44,44;44,4<242---62,4-44,,4$341444:4444444448444444444444",
"444$>>32444->7=2*<&>$3344,44>44,4<242>&-62-4,$4,,4$%,4444#4444444448444444444444",
"44424$24=44<-8=122&>&4244,44,44,42<4<3@>5<>44,4:,4@%%4444#444444444844444444%444",
"44414:312442$6=2<2&>>2444344$44<4<22<2X&62<<4>4<,4@%:4444%44444444484444:44:1#44",
"44424$144$44$6=122&--4243:42$44<=<<<&&XX822=4:#<,4@#34444$444444$4484444%44,4%44",
"$4414$312244#8=%<2,->244<$4,444,X<<*X&XX822:4:2:#4@%44444#44443443484444%44,4344",
"444241134244*6=&<<<--244%$4-443<::<# @&-8<424$4<34#%44444#4443%44$484441%4444444",
"4444443342=428=&<<<--434%$4:4$4$2X< X&--824444<$44#344444#444:444::744,;=4444444",
"24444$4222#428=*3<2>>334::4:424$2X>XX*--822444<$44#444444%4:4%4444#743#,=4444444",
":4444443#22446=*<<<->3=4<<4:44442&#*X=--724444<243%44344414:414444-7,%%4=244444#",
":4444444142446%$<22>>2&4,*4:44$4<<&=X=>=714444,44%$44:434443334$4448=$===--34443",
"14444444342147%$22<->3#4<#4:44$4<<&=&>=>714444,44:$44%4%4444,44444483$4==$%,4344",
"::4444444:2$46,=222>-3&4-$4*44<4<<->+>-=72444444;-$44,4#4444:44444473$4==%#,4+44",
"<::444444-4%48>=,22->-*%$$-$43<42<2>&=--72344$44-%#4,44#4444%44444;74%4==1-,$O44",
":*#44444444248>*2*2*>%:$$--444<3<<4>==>-7<144$44=-4-$4-:4444,444#%;74=4-%4,#,344",
":$o4444444$228>=2X2#-$2*:1,444<4<<4>----73;44,44==4$$414443434444#;7444=;4<$4344",
",:X3444444$4&8>=2@2#-&2-14<443<1<<4>-=--7,;44444-=44344444:444444;@7444=341;<444",
",-X,#44444>2#8>=2:2#>#2-%4:3-<,#<>4=---;73;4444;=-444444441%44444=+7444=44<,,444",
",oo:#4444441:8,-2<2,>=3*24>4&&=*<24>=>=>72<4444=%%444444414$44444=;7444=442,,444",
";oo:X444444$28>=<2<2>-3*43>4=><><<3>>===72<4441=%#4434444:4$44444;;74<4=44<,<444",
"O$o<X444$44$27*=2222--3*44>34,4<<<4>>=>=712444==-4#4%3444%3$44434;=54=4=44=2,444",
"o-::X444444$26*=2,22>-3<4,-44,4<<24>=>=>724444=;:44%#4444#4#444$4;;544;=44#<,4#4",
"o-;;@2444$4428<--2>,:-334$$44<4<>>3>>>=>72444---444$:3441%4$4443$;;7;4@=44;<<<44",
"o;,;:2444444<6<>@,#2>--34$344>4<&>4===>=72444=%$4$443%%4:14#:344$=;7#4%=44<,,<44",
"o,;;:,4444$4#82>*22,#>$33-444<4<+>4>=>=>71444=%444444%%4%44$%444%;;7,4=;2%<<,<44",
";;,;%:444444284>-&22#-$34%444>4>&<3=>=>=71444--444@44443%44,%444=;;644==;=<,<<44",
",,;,#;;4444:48$#-O22<>&,4%444,42X<4-=>=>53444=-4#4$34444$444:344;;;7;4=4,<<<;,44",
",;;;;;;44$4$48$1,--$<-&&4*444,42&<4>>=>=5<444=-3444#4444:444%444;o;7=4=44,,<O,44",
";,;#;;o44:4%48#1>=$+<>&-4$444<4,&>4===>&6<44=-444$4444444444:1%4;+;7;4=44<<,$,44",
";;;O,,o444434834>:*-<>=<4$444,42X<4>>>=&8<44--4$4$44-44444443$:4---7;4=44,<<;<44",
";;;O;,O444,34634$>-<2>-34#4%4<22@<3=--=&6,42>$444444#344444%4%34;;;7;4=4<<,<<<44",
",;;o;;O444,44614$>*2<->34$4*4<42&<3>-->X6>4%-4$4$4$4#$44444:4$4$=;=7<4=4,<<$<<44",
";;;o;;O444,44633#>*22*-34$4*4<4<=><>-=-&824,-4$4$4443:4%44434$4$;;;724=4<<<o,<44",
",;%;;;%44,13483#$>-,<*-24%2&4<4<=<>>>=>&8244#4444444444$44444$4#=;=7;4=4;;<#<+4%",
";,OO,;$4,1,=483#2>=<2&--4*4$4<22&<>--->-842424424144444$3:%44%4;;;=734=4<@<;<244",
";;OO;;$4,1,$48332>=22&-&4$424242=<>>=--<8414444*4#414444%1444-4:;;.744=3;+<<<444",
";;o%;,%4,,1,48332>=<2*>:4$442<42><&----284<2424,444$444444444:4;=;*744=2;=@<,444",
";;o;;;#41;,147132>=22->44>444222<<&>-&-<84<44444444$44444444-34-;;=544=2=,%<<444",
";;oo;O#,,$,,;5434>-<2>-242444<42<<&----284:44444$44%14444444<24;=;;744=;%,,<<444",
";;o;,#%,,@,,O6#34>>2<--22244422<<<*---&272:444&2#444$4#4444%144-.;=744=<$,<<,444",
",;O;;;$,,#,,O7O34>>-2>:2><442<42<<&---#284%44444:444$4$444%3444:;;;744*<%<<@<444",
";o;;;,$,,#,,;61:4>><2>$2:$444<42<<&---X284%24444444414$14:44442:;=;54;*;=,, <4o4"
};
